<svg width="289" height="289" viewBox="0 0 289 289" fill="none" xmlns="http://www.w3.org/2000/svg">
<g clip-path="url(#clip0_251_1831)">
<rect width="289" height="289" fill="#4B1A1A"/>
<circle cx="257" cy="65" r="90" fill="#D9D9D9"/>
<circle cx="36" cy="183" r="11" fill="#59A058"/>
<circle cx="58" cy="206" r="11" fill="#59A058"/>
<circle cx="91" cy="194" r="11" fill="#59A058"/>
<circle cx="81" cy="238" r="11" fill="#59A058"/>
<circle cx="36" cy="134" r="11" fill="#59A058"/>
<circle cx="58" cy="155" r="11" fill="#59A058"/>
<circle cx="145" cy="19" r="11" fill="#59A058"/>
<circle cx="136" cy="48" r="11" fill="#59A058"/>
<circle cx="20" cy="102" r="11" fill="#59A058"/>
<circle cx="156" cy="228" r="11" fill="#6870BD"/>
<circle cx="92" cy="107" r="11" fill="#6870BD"/>
<circle cx="114" cy="129" r="11" fill="#6870BD"/>
<circle cx="103" cy="70" r="11" fill="#6870BD"/>
<circle cx="69" cy="48" r="11" fill="#6870BD"/>
<circle cx="31" cy="41" r="11" fill="#6870BD"/>
<circle cx="58" cy="19" r="11" fill="#6870BD"/>
<circle cx="167" cy="194" r="11" fill="#6870BD"/>
<circle cx="188" cy="238" r="11" fill="#6870BD"/>
<circle cx="242" cy="195" r="11" fill="#6870BD"/>
<circle cx="199" cy="183" r="11" fill="#6870BD"/>
<circle cx="210" cy="216" r="11" fill="#6870BD"/>
<circle cx="299" cy="289" r="90" fill="#141414"/>
<circle cx="31" cy="339" r="90" fill="#141414"/>
</g>
<defs>
<clipPath id="clip0_251_1831">
<rect width="289" height="289" fill="white"/>
</clipPath>
</defs>
</svg>
