<svg width="289" height="289" viewBox="0 0 289 289" fill="none" xmlns="http://www.w3.org/2000/svg">
<g clip-path="url(#clip0_251_1867)">
<rect width="289" height="289" fill="#65245E"/>
<rect x="55" y="55" width="45" height="45" fill="#C4C4C4" stroke="white" stroke-width="10"/>
<rect x="55" y="122" width="45" height="46" fill="#C4C4C4" stroke="white" stroke-width="10"/>
<rect x="122" y="190" width="46" height="45" fill="#C4C4C4" stroke="white" stroke-width="10"/>
<rect x="190" y="190" width="46" height="45" fill="#474747" stroke="#737373" stroke-width="10"/>
<rect x="258" y="190" width="46" height="45" fill="#474747" stroke="#737373" stroke-width="10"/>
<rect x="258" y="122" width="46" height="45" fill="#474747" stroke="#737373" stroke-width="10"/>
<rect x="258" y="54" width="46" height="45" fill="#474747" stroke="#737373" stroke-width="10"/>
<rect x="257" y="-14" width="46" height="45" fill="#474747" stroke="#737373" stroke-width="10"/>
<rect x="190" y="-13" width="46" height="45" fill="#474747" stroke="#737373" stroke-width="10"/>
<rect x="122" y="-13" width="46" height="45" fill="#474747" stroke="#737373" stroke-width="10"/>
<rect x="55" y="-13" width="46" height="45" fill="#474747" stroke="#737373" stroke-width="10"/>
<rect x="-13" y="-13" width="46" height="45" fill="#474747" stroke="#737373" stroke-width="10"/>
<rect x="-13" y="55" width="46" height="45" fill="#474747" stroke="#737373" stroke-width="10"/>
<rect x="-13" y="122" width="46" height="45" fill="#474747" stroke="#737373" stroke-width="10"/>
<rect x="-14" y="190" width="46" height="45" fill="#474747" stroke="#737373" stroke-width="10"/>
<rect x="-14" y="257" width="46" height="45" fill="#474747" stroke="#737373" stroke-width="10"/>
<rect x="54" y="257" width="46" height="45" fill="#474747" stroke="#737373" stroke-width="10"/>
<rect x="123" y="257" width="46" height="45" fill="#474747" stroke="#737373" stroke-width="10"/>
<rect x="190" y="257" width="46" height="45" fill="#474747" stroke="#737373" stroke-width="10"/>
<rect x="258" y="257" width="46" height="45" fill="#474747" stroke="#737373" stroke-width="10"/>
<rect x="190" y="122" width="46" height="45" fill="#474747" stroke="#737373" stroke-width="10"/>
<rect x="122" y="122" width="46" height="45" fill="#474747" stroke="#737373" stroke-width="10"/>
<rect x="54" y="190" width="46" height="45" fill="#474747" stroke="#737373" stroke-width="10"/>
<rect x="190" y="55" width="45" height="45" fill="#C4C4C4" stroke="white" stroke-width="10"/>
<rect x="122" y="55" width="46" height="45" fill="#C4C4C4" stroke="white" stroke-width="10"/>
</g>
<defs>
<clipPath id="clip0_251_1867">
<rect width="289" height="289" fill="white"/>
</clipPath>
</defs>
</svg>
