<svg width="289" height="289" viewBox="0 0 289 289" fill="none" xmlns="http://www.w3.org/2000/svg">
<rect width="289" height="289" fill="#DEDEDE"/>
<path d="M60.5976 229.591C16.503 175.579 60.5976 112.713 60.5976 112.713C60.5976 112.713 109.286 36.3118 167.16 29.4812C212.173 24.1686 248 63.128 248 132.192C248 191.517 232.383 213.653 214.929 229.591C159.811 279.922 88.762 264.09 60.5976 229.591Z" fill="#414018"/>
<path d="M58.3188 212.99C19.3514 163.449 58.3188 105.785 58.3188 105.785C58.3188 105.785 101.345 35.7067 152.49 29.4414C192.269 24.5684 223.93 60.3036 223.93 123.652C223.93 178.067 210.129 198.372 194.705 212.99C145.995 259.156 83.2083 244.634 58.3188 212.99Z" fill="#607142" stroke="#607142" stroke-width="5"/>
<path d="M64.9748 208.563C29.0838 162.374 64.9748 108.612 64.9748 108.612C64.9748 108.612 104.604 43.2761 151.711 37.4347C188.35 32.8915 217.512 66.2085 217.512 125.271C217.512 176.003 204.8 194.934 190.593 208.563C145.73 251.604 87.8993 238.066 64.9748 208.563Z" fill="#ACBC5C" stroke="#ACBC5C" stroke-width="5"/>
<path d="M67.5764 206.239C33.0527 161.54 67.5764 109.512 67.5764 109.512C67.5764 109.512 105.696 46.2837 151.009 40.6308C186.252 36.2341 214.302 68.4764 214.302 125.633C214.302 174.729 202.075 193.049 188.41 206.239C145.255 247.892 89.6276 234.79 67.5764 206.239Z" fill="#DCD680"/>
<circle cx="126.849" cy="161.384" r="52.1512" fill="#AE9254"/>
</svg>
