<svg width="289" height="289" viewBox="0 0 289 289" fill="none" xmlns="http://www.w3.org/2000/svg">
<g clip-path="url(#clip0_238_1681)">
<rect width="289" height="289" fill="#2C2C2C"/>
<mask id="mask0_238_1681" style="mask-type:alpha" maskUnits="userSpaceOnUse" x="0" y="19" width="289" height="252">
<rect y="19" width="289" height="251.468" fill="#D9D9D9"/>
</mask>
<g mask="url(#mask0_238_1681)">
<path d="M291.502 32.1365L144.5 144.108L-2.50214 254.204" stroke="#6AA5EB" stroke-width="4"/>
<path d="M290.251 253.578L143.249 141.606L-3.75324 31.5108" stroke="#6AA5EB" stroke-width="4"/>
<path d="M143.874 86.5583L118.105 91.2915C114.872 91.8853 111.759 93.0063 108.89 94.6096L91.9545 104.074" stroke="#6AA5EB" stroke-width="4"/>
<path d="M66.9329 144.108L73.5118 126.721C74.9493 122.922 77.1433 119.454 79.9608 116.529L91.9546 104.073" stroke="#6AA5EB" stroke-width="4"/>
<path d="M143.874 86.5583L169.644 91.2915C172.877 91.8853 175.99 93.0063 178.859 94.6096L195.794 104.074" stroke="#6AA5EB" stroke-width="4"/>
<path d="M220.816 144.108L214.237 126.721C212.8 122.922 210.606 119.454 207.788 116.529L195.794 104.073" stroke="#6AA5EB" stroke-width="4"/>
<path d="M143.874 202.909L118.518 198.195C115.257 197.589 112.119 196.446 109.231 194.813L92.5801 185.394" stroke="#6AA5EB" stroke-width="4"/>
<path d="M67.5585 144.108L74.2239 162.275C75.6047 166.038 77.7255 169.486 80.4612 172.416L92.5801 185.394" stroke="#6AA5EB" stroke-width="4"/>
<path d="M143.874 202.909L170.056 198.158C173.261 197.576 176.349 196.476 179.201 194.902L196.42 185.394" stroke="#6AA5EB" stroke-width="4"/>
<path d="M221.442 144.108L214.776 162.275C213.395 166.038 211.274 169.486 208.539 172.416L196.42 185.394" stroke="#6AA5EB" stroke-width="4"/>
<path d="M145.126 279.225L145.751 147.382L146.377 17.7489" stroke="#6AA5EB" stroke-width="4"/>
<path d="M147.002 17.7488L145.126 143.483V277.348" stroke="#6AA5EB" stroke-width="4"/>
<path d="M-3.75323 142.857H145.751H290.251" stroke="#6AA5EB" stroke-width="4"/>
<path d="M172.511 48.9866L171.789 50.5896C169.686 55.2628 170.799 60.7566 174.554 64.2436C176.172 65.7458 178.179 66.7842 180.216 67.6355C183.383 68.9588 187.278 70.9198 189.539 70.9198C191.777 70.9198 198.505 71.7539 201.424 70.9198L206.138 69.0343C207.164 68.6238 208.156 68.132 209.103 67.5634L210.738 66.5826C212.831 65.3266 214.551 63.5345 215.72 61.3914L215.808 61.2311C217.035 58.9821 217.575 56.4228 217.362 53.8698C217.166 51.5183 216.339 49.2633 214.967 47.3432L213.652 45.5017C211.78 42.8809 209.338 40.7182 206.511 39.1759L205.395 38.567C204.417 38.0339 203.4 37.578 202.351 37.2036C197.707 35.5448 192.631 35.5448 187.986 37.2036L186.411 37.7661L183.737 38.9547C181.775 39.8265 179.939 40.9571 178.278 42.3164L176.522 43.7536C174.798 45.164 173.425 46.9554 172.511 48.9866Z" stroke="#6AA5EB" stroke-width="4"/>
<path d="M118.992 49.6124L119.713 51.2154C121.816 55.8885 120.703 61.3823 116.948 64.8693C115.33 66.3715 113.323 67.41 111.286 68.2612C108.119 69.5845 104.224 71.5455 101.963 71.5455C99.7252 71.5455 92.9971 72.3796 90.0779 71.5455L85.3641 69.66C84.338 69.2496 83.3465 68.7577 82.3988 68.1892L80.764 67.2083C78.6708 65.9523 76.9508 64.1602 75.7819 62.0172L75.6944 61.8568C74.4677 59.6078 73.9273 57.0485 74.14 54.4956C74.336 52.144 75.1634 49.8891 76.535 47.9689L77.8503 46.1275C79.7223 43.5066 82.1637 41.3439 84.9912 39.8017L86.1075 39.1928C87.0849 38.6596 88.1024 38.2038 89.1509 37.8293C93.7955 36.1705 98.8712 36.1705 103.516 37.8293L105.091 38.3919L107.765 39.5804C109.727 40.4522 111.563 41.5829 113.224 42.9422L114.981 44.3793C116.704 45.7898 118.078 47.5811 118.992 49.6124Z" stroke="#6AA5EB" stroke-width="4"/>
<path d="M172.511 239.601L171.789 237.998C169.686 233.324 170.799 227.831 174.554 224.344C176.172 222.841 178.179 221.803 180.216 220.952C183.383 219.628 187.278 217.667 189.539 217.667C191.777 217.667 198.505 216.833 201.424 217.667L206.138 219.553C207.164 219.963 208.156 220.455 209.103 221.024L210.738 222.005C212.831 223.261 214.551 225.053 215.72 227.196L215.808 227.356C217.035 229.605 217.575 232.164 217.362 234.717C217.166 237.069 216.339 239.324 214.967 241.244L213.652 243.085C211.78 245.706 209.338 247.869 206.511 249.411L205.395 250.02C204.417 250.553 203.4 251.009 202.351 251.384C197.707 253.042 192.631 253.042 187.986 251.384L186.411 250.821L183.737 249.632C181.775 248.761 179.939 247.63 178.278 246.271L176.522 244.834C174.798 243.423 173.425 241.632 172.511 239.601Z" stroke="#6AA5EB" stroke-width="4"/>
<path d="M118.992 238.975L119.713 237.372C121.816 232.699 120.703 227.205 116.948 223.718C115.33 222.216 113.323 221.177 111.286 220.326C108.119 219.003 104.224 217.042 101.963 217.042C99.7252 217.042 92.9971 216.208 90.0779 217.042L85.3641 218.927C84.338 219.338 83.3465 219.83 82.3988 220.398L80.764 221.379C78.6708 222.635 76.9508 224.427 75.7819 226.57L75.6944 226.731C74.4677 228.98 73.9273 231.539 74.14 234.092C74.336 236.443 75.1634 238.698 76.535 240.619L77.8503 242.46C79.7223 245.081 82.1637 247.243 84.9912 248.786L86.1075 249.395C87.0849 249.928 88.1024 250.384 89.1509 250.758C93.7955 252.417 98.8712 252.417 103.516 250.758L105.091 250.196L107.765 249.007C109.727 248.135 111.563 247.005 113.224 245.645L114.981 244.208C116.704 242.798 118.078 241.006 118.992 238.975Z" stroke="#6AA5EB" stroke-width="4"/>
<path d="M265.855 89.686H261.186C258.487 89.686 255.815 90.2204 253.324 91.2584L252.687 91.5239C250.643 92.3755 248.785 93.6194 247.219 95.1852L247.066 95.3389C245.432 96.9722 244.173 98.9405 243.374 101.108C241.413 106.431 242.425 112.395 246.031 116.774L248.965 120.338C249.964 121.336 251.759 122.434 253.556 123.393C257.051 125.258 261.018 125.92 264.943 125.389C266.05 125.239 267.183 125.07 268.24 124.892C270.829 124.458 273.25 123.407 275.501 122.056L278.366 120.338L281.424 118.502C283.518 117.246 285.237 115.454 286.406 113.311C287.69 110.958 288.256 108.279 288.033 105.608L288.005 105.266C287.836 103.243 287.239 101.279 286.253 99.505C285.18 97.5726 283.673 95.9153 281.852 94.6629L280.311 93.604C276.6 91.0521 272.201 89.686 267.697 89.686H265.855Z" stroke="#6AA5EB" stroke-width="4"/>
<path d="M265.855 196.654H261.186C258.487 196.654 255.815 196.119 253.324 195.081L252.687 194.816C250.643 193.964 248.785 192.72 247.219 191.155L247.066 191.001C245.432 189.368 244.173 187.399 243.374 185.232C241.413 179.909 242.425 173.945 246.031 169.565L248.965 166.002C249.964 165.004 251.759 163.906 253.556 162.947C257.051 161.082 261.018 160.42 264.943 160.951C266.05 161.101 267.183 161.27 268.24 161.447C270.829 161.882 273.25 162.933 275.501 164.284L278.366 166.002L281.424 167.837C283.518 169.093 285.237 170.885 286.406 173.029C287.69 175.382 288.256 178.06 288.033 180.732L288.005 181.074C287.836 183.097 287.239 185.061 286.253 186.835C285.18 188.767 283.673 190.425 281.852 191.677L280.311 192.736C276.6 195.288 272.201 196.654 267.697 196.654H265.855Z" stroke="#6AA5EB" stroke-width="4"/>
<path d="M22.5195 86.5583H27.1888C29.8876 86.5583 32.5597 87.0928 35.0508 88.1308L35.6878 88.3962C37.7319 89.2478 39.5892 90.4917 41.155 92.0575L41.3087 92.2112C42.942 93.8445 44.2014 95.8129 45 97.9803C46.9611 103.303 45.9498 109.268 42.3435 113.647L39.4091 117.21C38.4106 118.208 36.6153 119.306 34.818 120.266C31.3237 122.131 27.3567 122.792 23.4317 122.261C22.3245 122.112 21.1919 121.942 20.1345 121.765C17.5457 121.33 15.124 120.279 12.8732 118.929L10.0087 117.21L6.95018 115.375C4.85691 114.119 3.13695 112.327 1.968 110.184C0.684231 107.83 0.118679 105.152 0.34132 102.48L0.369827 102.138C0.538387 100.115 1.13534 98.1516 2.12105 96.3773C3.19458 94.4449 4.70124 92.7876 6.52282 91.5352L8.06308 90.4763C11.7749 87.9245 16.1733 86.5583 20.6776 86.5583H22.5195Z" stroke="#6AA5EB" stroke-width="4"/>
<path d="M22.5195 193.526H27.1888C29.8876 193.526 32.5597 192.991 35.0508 191.953L35.6878 191.688C37.7319 190.836 39.5892 189.593 41.155 188.027L41.3087 187.873C42.942 186.24 44.2014 184.271 45 182.104C46.9611 176.781 45.9498 170.817 42.3435 166.438L39.4091 162.874C38.4106 161.876 36.6153 160.778 34.818 159.819C31.3237 157.954 27.3567 157.292 23.4317 157.823C22.3245 157.973 21.1919 158.142 20.1345 158.319C17.5457 158.754 15.124 159.805 12.8732 161.156L10.0087 162.874L6.95018 164.709C4.85691 165.965 3.13695 167.758 1.968 169.901C0.684231 172.254 0.118679 174.932 0.34132 177.604L0.369827 177.946C0.538387 179.969 1.13534 181.933 2.12105 183.707C3.19458 185.639 4.70124 187.297 6.52282 188.549L8.06308 189.608C11.7749 192.16 16.1733 193.526 20.6776 193.526H22.5195Z" stroke="#6AA5EB" stroke-width="4"/>
<path d="M29.3132 292.047L26.5684 297.653C24.8137 301.237 28.906 304.848 32.2436 302.661C32.7096 302.356 33.1052 301.954 33.4042 301.484L39.2555 292.282C40.6698 290.058 42.5255 288.148 44.708 286.67C52.2046 281.594 55.1523 271.98 51.7899 263.574L48.0552 254.237C46.8857 251.314 45.2633 248.593 43.2475 246.174L36.9069 238.565C36.5794 238.05 36.1898 237.494 35.7497 236.907C29.9107 229.122 4.27723 214.979 -5.1079 212.406C-7.75692 211.679 -8.7501 213.679 -9.86824 216.188L-11.9182 220.788C-14.3119 226.159 -14.6826 232.214 -12.962 237.837L-11.1132 243.879C-9.91296 247.801 -9.52979 251.928 -9.9873 256.004L-10.7745 263.017C-11.0948 265.871 -10.8475 268.76 -10.0469 271.517C-7.41379 280.587 0.765591 286.925 10.2055 287.211L11.5534 287.252C13.8476 287.322 16.1396 287.057 18.3574 286.465L23.5798 285.073C24.1201 284.929 24.6809 284.877 25.2384 284.92C28.7333 285.189 30.8545 288.899 29.3132 292.047Z" stroke="#6AA5EB" stroke-width="4"/>
<path d="M262.189 291.62L264.934 297.226C266.689 300.81 262.596 304.421 259.259 302.234C258.793 301.929 258.397 301.527 258.098 301.057L252.247 291.855C250.832 289.631 248.977 287.721 246.794 286.243C239.298 281.167 236.35 271.553 239.712 263.147L243.447 253.81C244.616 250.887 246.239 248.166 248.255 245.747L254.595 238.138C254.923 237.623 255.312 237.067 255.752 236.48C261.591 228.695 287.225 214.552 296.61 211.979C299.259 211.252 300.252 213.252 301.37 215.761L303.42 220.361C305.814 225.732 306.185 231.787 304.464 237.41L302.615 243.452C301.415 247.374 301.032 251.501 301.489 255.577L302.277 262.59C302.597 265.444 302.35 268.333 301.549 271.09C298.916 280.16 290.737 286.498 281.297 286.784L279.949 286.825C277.655 286.895 275.363 286.63 273.145 286.038L267.922 284.646C267.382 284.502 266.821 284.45 266.264 284.493C262.769 284.762 260.648 288.472 262.189 291.62Z" stroke="#6AA5EB" stroke-width="4"/>
<path d="M28.6795 -7.58387L25.9347 -13.19C24.18 -16.7738 28.2723 -20.3848 31.6099 -18.1978C32.0759 -17.8924 32.4716 -17.4913 32.7705 -17.0211L38.6218 -7.81887C40.0361 -5.59472 41.8919 -3.68459 44.0743 -2.20676C51.5709 2.86957 54.5187 12.4828 51.1562 20.8889L47.4215 30.2257C46.2521 33.1493 44.6296 35.8705 42.6138 38.2895L36.2733 45.8982C35.9457 46.4133 35.5561 46.969 35.116 47.5557C29.2771 55.3408 3.64356 69.4843 -5.74157 72.0575C-8.39059 72.7837 -9.38377 70.784 -10.5019 68.2751L-12.5518 63.6755C-14.9456 58.3044 -15.3163 52.2488 -13.5956 46.6258L-11.7468 40.5841C-10.5466 36.662 -10.1635 32.5354 -10.621 28.4594L-11.4082 21.446C-11.7285 18.5924 -11.4812 15.7036 -10.6806 12.9459C-8.04745 3.87616 0.131924 -2.4623 9.5718 -2.74836L10.9197 -2.7892C13.2139 -2.85872 15.506 -2.59361 17.7237 -2.00221L22.9462 -0.609552C23.4865 -0.465473 24.0472 -0.413784 24.6048 -0.456671C28.0996 -0.725508 30.2208 -4.43575 28.6795 -7.58387Z" stroke="#6AA5EB" stroke-width="4"/>
<path d="M261.555 -7.15687L264.3 -12.763C266.055 -16.3468 261.963 -19.9578 258.625 -17.7708C258.159 -17.4654 257.763 -17.0643 257.464 -16.5941L251.613 -7.39187C250.199 -5.16772 248.343 -3.25758 246.161 -1.77976C238.664 3.29658 235.716 12.9098 239.079 21.3159L242.813 30.6527C243.983 33.5763 245.605 36.2975 247.621 38.7165L253.962 46.3252C254.289 46.8403 254.679 47.396 255.119 47.9827C260.958 55.7678 286.591 69.9113 295.976 72.4845C298.625 73.2107 299.619 71.211 300.737 68.7021L302.787 64.1025C305.18 58.7314 305.551 52.6758 303.83 47.0528L301.982 41.0111C300.781 37.089 300.398 32.9624 300.856 28.8864L301.643 21.873C301.963 19.0194 301.716 16.1306 300.915 13.3729C298.282 4.30316 290.103 -2.0353 280.663 -2.32136L279.315 -2.3622C277.021 -2.43172 274.729 -2.16661 272.511 -1.57521L267.289 -0.18255C266.748 -0.0384712 266.188 0.0132179 265.63 -0.0296688C262.135 -0.298506 260.014 -4.00875 261.555 -7.15687Z" stroke="#6AA5EB" stroke-width="4"/>
</g>
<rect width="289" height="19" fill="#6AA5EB"/>
<rect y="270" width="289" height="19" fill="#6AA5EB"/>
</g>
<defs>
<clipPath id="clip0_238_1681">
<rect width="289" height="289" fill="white"/>
</clipPath>
</defs>
</svg>
