<svg width="289" height="289" viewBox="0 0 289 289" fill="none" xmlns="http://www.w3.org/2000/svg">
<rect width="289" height="289" fill="white"/>
<ellipse cx="146" cy="141.5" rx="97" ry="97.5" fill="#CBCBD3"/>
<ellipse cx="17.7646" cy="17.4947" rx="17.7646" ry="17.4947" transform="matrix(0.9781 0.208134 -0.214928 0.97663 120.173 123.333)" fill="#924A3A"/>
<ellipse cx="11.3805" cy="11.2076" rx="11.3805" ry="11.2076" transform="matrix(0.9781 0.208134 -0.214928 0.97663 101.235 237.798)" fill="#924A3A"/>
<path d="M151.164 147.813L121.03 253.747L98.7674 249.01L116.413 140.418L151.164 147.813Z" fill="#924A3A"/>
<ellipse cx="146" cy="146.823" rx="17.7778" ry="17.4814" fill="#E44B29"/>
<ellipse cx="156.833" cy="132.893" rx="14.1667" ry="13.9305" fill="#E44B29"/>
<ellipse cx="126" cy="139.175" rx="16.1111" ry="15.8425" fill="#E44B29"/>
<ellipse cx="114.889" cy="124.425" rx="16.1111" ry="15.8425" fill="#E44B29"/>
<ellipse cx="134.611" cy="123.06" rx="12.5" ry="12.2916" fill="#E44B29"/>
<ellipse cx="134.611" cy="123.06" rx="12.5" ry="12.2916" fill="#E44B29"/>
<ellipse cx="119.056" cy="125.245" rx="10.2778" ry="10.1064" fill="#E44B29"/>
<ellipse cx="121.833" cy="107.763" rx="10.2778" ry="10.1064" fill="#E44B29"/>
<ellipse cx="154.611" cy="122.513" rx="11.9444" ry="11.7453" fill="#E46D29"/>
<ellipse cx="155.444" cy="110.768" rx="8.33333" ry="8.19439" fill="#E46D29"/>
<ellipse cx="144.056" cy="139.995" rx="9.16667" ry="9.01383" fill="#E46D29"/>
<ellipse cx="125.722" cy="126.883" rx="11.9444" ry="11.7453" fill="#E46D29"/>
<ellipse cx="127.667" cy="109.129" rx="10" ry="9.83327" fill="#E46D29"/>
<ellipse cx="131" cy="94.9254" rx="7.77778" ry="7.6481" fill="#E46D29"/>
<ellipse cx="141.833" cy="105.032" rx="8.61111" ry="8.46754" fill="#E49929"/>
<ellipse cx="172.667" cy="117.87" rx="5" ry="4.91663" fill="#E49929"/>
<ellipse cx="146" cy="83.9996" rx="5" ry="4.91663" fill="#E49929"/>
<ellipse cx="160.444" cy="68.7034" rx="5" ry="4.91663" fill="#7A7A7A"/>
<ellipse cx="166.278" cy="78.8098" rx="7.5" ry="7.37495" fill="#7A7A7A"/>
<ellipse cx="152.389" cy="88.0968" rx="6.38889" ry="6.28236" fill="#7A7A7A"/>
<ellipse cx="137.667" cy="77.9903" rx="6.66667" ry="6.55551" fill="#7A7A7A"/>
<ellipse cx="146.278" cy="70.0691" rx="9.16667" ry="9.01383" fill="#7A7A7A"/>
<ellipse cx="134.333" cy="64.333" rx="5" ry="4.91663" fill="#7A7A7A"/>
<ellipse cx="142.667" cy="52.3147" rx="8.88889" ry="8.74068" fill="#606060"/>
<ellipse cx="142.667" cy="52.3147" rx="8.88889" ry="8.74068" fill="#606060"/>
<ellipse cx="142.667" cy="52.3147" rx="8.88889" ry="8.74068" fill="#606060"/>
<ellipse cx="171" cy="57.2312" rx="10.5556" ry="10.3796" fill="#606060"/>
<ellipse cx="171" cy="57.2312" rx="10.5556" ry="10.3796" fill="#606060"/>
<ellipse cx="171" cy="57.2312" rx="10.5556" ry="10.3796" fill="#606060"/>
<ellipse cx="125.722" cy="40.5693" rx="15.8333" ry="15.5693" fill="#606060"/>
<ellipse cx="125.722" cy="40.5693" rx="15.8333" ry="15.5693" fill="#606060"/>
<ellipse cx="125.722" cy="40.5693" rx="15.8333" ry="15.5693" fill="#606060"/>
<ellipse cx="150.444" cy="123.879" rx="5" ry="4.91663" fill="#E49929"/>
<ellipse cx="134.611" cy="92.4671" rx="6.94444" ry="6.82866" fill="#E49929"/>
<ellipse cx="160.444" cy="103.666" rx="7.22222" ry="7.1018" fill="#E49929"/>
<ellipse cx="134.333" cy="64.333" rx="5" ry="4.91663" fill="#7A7A7A"/>
<ellipse cx="159.056" cy="55.3192" rx="3.61111" ry="3.5509" fill="#7A7A7A"/>
<ellipse cx="167.944" cy="41.1157" rx="5.27778" ry="5.18978" fill="#7A7A7A"/>
<ellipse cx="133.778" cy="47.9443" rx="3.88889" ry="3.82405" fill="#7A7A7A"/>
</svg>
