<svg width="289" height="289" viewBox="0 0 289 289" fill="none" xmlns="http://www.w3.org/2000/svg">
<g clip-path="url(#clip0_251_1808)">
<rect width="289" height="289" fill="#F8F8F8"/>
<rect x="-4" width="293" height="41" fill="url(#paint0_linear_251_1808)"/>
<rect x="50" y="189" width="190" height="27" rx="3" fill="url(#paint1_linear_251_1808)"/>
<rect x="50" y="157" width="153" height="19" rx="3" fill="url(#paint2_linear_251_1808)"/>
<rect x="50" y="129" width="153" height="19" rx="3" fill="url(#paint3_linear_251_1808)"/>
<rect x="50" y="101" width="153" height="19" rx="3" fill="url(#paint4_linear_251_1808)"/>
<rect x="50" y="73" width="153" height="19" rx="3" fill="url(#paint5_linear_251_1808)"/>
<rect x="213" y="157" width="27" height="19" rx="3" fill="url(#paint6_linear_251_1808)"/>
<rect x="213" y="129" width="27" height="19" rx="3" fill="url(#paint7_linear_251_1808)"/>
<rect x="213" y="101" width="27" height="19" rx="3" fill="url(#paint8_linear_251_1808)"/>
<rect x="213" y="73" width="27" height="19" rx="3" fill="url(#paint9_linear_251_1808)"/>
<rect y="248" width="293" height="41" fill="url(#paint10_linear_251_1808)"/>
</g>
<defs>
<linearGradient id="paint0_linear_251_1808" x1="289" y1="18.3258" x2="1.50001" y2="18.3258" gradientUnits="userSpaceOnUse">
<stop stop-color="#495C8E"/>
<stop offset="1" stop-color="#949FB4"/>
</linearGradient>
<linearGradient id="paint1_linear_251_1808" x1="113.225" y1="216" x2="113.225" y2="189" gradientUnits="userSpaceOnUse">
<stop stop-color="#526384"/>
<stop offset="1" stop-color="#2E3750"/>
</linearGradient>
<linearGradient id="paint2_linear_251_1808" x1="100.913" y1="176" x2="100.913" y2="157" gradientUnits="userSpaceOnUse">
<stop stop-color="#9EA5B3"/>
</linearGradient>
<linearGradient id="paint3_linear_251_1808" x1="100.913" y1="148" x2="100.913" y2="129" gradientUnits="userSpaceOnUse">
<stop stop-color="#9EA5B3"/>
</linearGradient>
<linearGradient id="paint4_linear_251_1808" x1="100.913" y1="120" x2="100.913" y2="101" gradientUnits="userSpaceOnUse">
<stop stop-color="#9EA5B3"/>
</linearGradient>
<linearGradient id="paint5_linear_251_1808" x1="100.913" y1="92" x2="100.913" y2="73" gradientUnits="userSpaceOnUse">
<stop stop-color="#9EA5B3"/>
</linearGradient>
<linearGradient id="paint6_linear_251_1808" x1="221.985" y1="176" x2="221.985" y2="157" gradientUnits="userSpaceOnUse">
<stop stop-color="#9EA5B3"/>
</linearGradient>
<linearGradient id="paint7_linear_251_1808" x1="221.985" y1="148" x2="221.985" y2="129" gradientUnits="userSpaceOnUse">
<stop stop-color="#9EA5B3"/>
</linearGradient>
<linearGradient id="paint8_linear_251_1808" x1="221.985" y1="120" x2="221.985" y2="101" gradientUnits="userSpaceOnUse">
<stop stop-color="#9EA5B3"/>
</linearGradient>
<linearGradient id="paint9_linear_251_1808" x1="221.985" y1="92" x2="221.985" y2="73" gradientUnits="userSpaceOnUse">
<stop stop-color="#9EA5B3"/>
</linearGradient>
<linearGradient id="paint10_linear_251_1808" x1="293" y1="266.326" x2="5.50001" y2="266.326" gradientUnits="userSpaceOnUse">
<stop stop-color="#495C8E"/>
<stop offset="1" stop-color="#949FB4"/>
</linearGradient>
<clipPath id="clip0_251_1808">
<rect width="289" height="289" fill="white"/>
</clipPath>
</defs>
</svg>
