<svg width="289" height="289" viewBox="0 0 289 289" fill="none" xmlns="http://www.w3.org/2000/svg">
<g clip-path="url(#clip0_238_966)">
<rect width="289" height="289" fill="#090E29"/>
<mask id="mask0_238_966" style="mask-type:alpha" maskUnits="userSpaceOnUse" x="0" y="0" width="289" height="289">
<rect width="289" height="289" fill="#D9D9D9"/>
</mask>
<g mask="url(#mask0_238_966)">
<path d="M132.563 56.5435L193.504 46.4913L244.393 74.1348L270.78 123.139L275.178 214.865L252.561 266.383L207.954 295.283H145.128L71.6217 253.817L44.6065 207.954L37.6957 153.296L62.8261 101.778L132.563 56.5435Z" fill="#212A77"/>
<path d="M172.5 87.5L223 111.5L229.5 147.643L234.5 194.135L231 229L183.5 255.5L148.5 241.254L107.5 219.5L94.5 211.5L82 205.5V147.643L111 125.072L140 100.5L172.5 87.5Z" fill="#505CC9"/>
<path d="M140.73 100.522L186.593 128.165L229.943 145.757L235.598 194.133L191.124 211.724L150.154 242.509L109.317 221.776L118.113 174.657L109.317 128.165L140.73 100.522Z" fill="#3541A9"/>
<path d="M275.178 214.865L299.052 250.048" stroke="#DBDFFF" stroke-width="3"/>
<path d="M275.178 214.865L252.561 267.639" stroke="#DBDFFF" stroke-width="3"/>
<path d="M229.943 229.944L252.561 267.639" stroke="#DBDFFF" stroke-width="3"/>
<path d="M229.943 229.944L275.178 214.865" stroke="#DBDFFF" stroke-width="3"/>
<path d="M270.152 124.396L275.178 214.865" stroke="#DBDFFF" stroke-width="3"/>
<path d="M234.97 193.504L275.178 214.865" stroke="#DBDFFF" stroke-width="3"/>
<path d="M234.97 193.504L229.943 229.944" stroke="#DBDFFF" stroke-width="3"/>
<path d="M234.97 193.504L189.735 211.096" stroke="#DBDFFF" stroke-width="3"/>
<path d="M183.452 256.33L189.735 211.096" stroke="#DBDFFF" stroke-width="3"/>
<path d="M229.943 229.944L189.735 211.096" stroke="#DBDFFF" stroke-width="3"/>
<path d="M229.943 229.944L183.452 256.331" stroke="#DBDFFF" stroke-width="3"/>
<path d="M207.326 295.282L183.452 256.33" stroke="#DBDFFF" stroke-width="3"/>
<path d="M207.326 295.282L252.561 267.639" stroke="#DBDFFF" stroke-width="3"/>
<path d="M149.526 242.509L144.5 295.282" stroke="#DBDFFF" stroke-width="3"/>
<path d="M70.3652 255.074L144.5 295.282" stroke="#DBDFFF" stroke-width="3"/>
<path d="M70.3652 255.074L65.3391 296.539" stroke="#DBDFFF" stroke-width="3"/>
<path d="M28.9 260.1L65.3391 296.539" stroke="#DBDFFF" stroke-width="3"/>
<path d="M28.9 260.1L43.9783 208.583" stroke="#DBDFFF" stroke-width="3"/>
<path d="M70.3652 255.074L43.9783 208.583" stroke="#DBDFFF" stroke-width="3"/>
<path d="M70.3652 255.074L28.9 260.1" stroke="#DBDFFF" stroke-width="3"/>
<path d="M70.3652 255.074L84.187 206.07" stroke="#DBDFFF" stroke-width="3"/>
<path d="M109.317 221.148L84.187 206.07" stroke="#DBDFFF" stroke-width="3"/>
<path d="M109.317 221.148L70.3652 255.074" stroke="#DBDFFF" stroke-width="3"/>
<path d="M109.317 221.148L118.113 174.656" stroke="#DBDFFF" stroke-width="3"/>
<path d="M163.348 170.887L118.113 174.656" stroke="#DBDFFF" stroke-width="3"/>
<path d="M163.348 170.887L189.735 211.095" stroke="#DBDFFF" stroke-width="3"/>
<path d="M163.348 170.887L185.965 129.422" stroke="#DBDFFF" stroke-width="3"/>
<path d="M229.943 145.757L185.965 129.422" stroke="#DBDFFF" stroke-width="3"/>
<path d="M229.943 145.757L234.97 193.504" stroke="#DBDFFF" stroke-width="3"/>
<path d="M229.943 145.757L270.152 124.396" stroke="#DBDFFF" stroke-width="3"/>
<path d="M223.661 111.831L270.152 124.396" stroke="#DBDFFF" stroke-width="3"/>
<path d="M223.661 111.831L229.943 145.757" stroke="#DBDFFF" stroke-width="3"/>
<path d="M223.661 111.83L243.765 74.1348" stroke="#DBDFFF" stroke-width="3"/>
<path d="M290.257 85.4435L243.765 74.1348" stroke="#DBDFFF" stroke-width="3"/>
<path d="M290.257 85.4436L270.152 124.396" stroke="#DBDFFF" stroke-width="3"/>
<path d="M290.257 85.4435L309.104 140.73" stroke="#DBDFFF" stroke-width="3"/>
<path d="M290.257 85.4435L290.257 37.6957" stroke="#DBDFFF" stroke-width="3"/>
<path d="M236.226 22.6174L290.257 37.6957" stroke="#DBDFFF" stroke-width="3"/>
<path d="M236.226 22.6174L243.765 74.1348" stroke="#DBDFFF" stroke-width="3"/>
<path d="M236.226 22.6174L192.248 46.4913" stroke="#DBDFFF" stroke-width="3"/>
<path d="M243.765 74.1348L192.248 46.4913" stroke="#DBDFFF" stroke-width="3"/>
<path d="M173.4 87.9565L192.248 46.4913" stroke="#DBDFFF" stroke-width="3"/>
<path d="M173.4 87.9564L223.661 111.83" stroke="#DBDFFF" stroke-width="3"/>
<path d="M185.965 129.422L223.661 111.83" stroke="#DBDFFF" stroke-width="3"/>
<path d="M185.965 129.422L173.4 87.9565" stroke="#DBDFFF" stroke-width="3"/>
<path d="M139.474 100.522L173.4 87.9565" stroke="#DBDFFF" stroke-width="3"/>
<path d="M139.474 100.522L185.965 129.422" stroke="#DBDFFF" stroke-width="3"/>
<path d="M139.474 100.522L109.317 126.909" stroke="#DBDFFF" stroke-width="3"/>
<path d="M62.8261 101.778L109.317 126.909" stroke="#DBDFFF" stroke-width="3"/>
<path d="M62.8261 101.778L131.935 56.5435" stroke="#DBDFFF" stroke-width="3"/>
<path d="M139.474 100.522L131.935 56.5435" stroke="#DBDFFF" stroke-width="3"/>
<path d="M173.4 87.9565L131.935 56.5435" stroke="#DBDFFF" stroke-width="3"/>
<path d="M192.248 46.4913L131.935 56.5435" stroke="#DBDFFF" stroke-width="3"/>
<path d="M149.526 16.3348L131.935 56.5435" stroke="#DBDFFF" stroke-width="3"/>
<path d="M149.526 16.3348L96.7522 30.1565" stroke="#DBDFFF" stroke-width="3"/>
<path d="M131.935 56.5435L96.7522 30.1565" stroke="#DBDFFF" stroke-width="3"/>
<path d="M51.5174 59.0565L96.7522 30.1565" stroke="#DBDFFF" stroke-width="3"/>
<path d="M51.5174 59.0566L62.8261 101.778" stroke="#DBDFFF" stroke-width="3"/>
<path d="M51.5174 59.0565L18.8478 100.522" stroke="#DBDFFF" stroke-width="3"/>
<path d="M62.8261 101.778L18.8478 100.522" stroke="#DBDFFF" stroke-width="3"/>
<path d="M62.8261 101.778L37.6957 153.296" stroke="#DBDFFF" stroke-width="3"/>
<path d="M80.4174 148.27L37.6957 153.296" stroke="#DBDFFF" stroke-width="3"/>
<path d="M80.4174 148.27L62.8261 101.778" stroke="#DBDFFF" stroke-width="3"/>
<path d="M80.4174 148.27L109.317 126.909" stroke="#DBDFFF" stroke-width="3"/>
<path d="M80.4174 148.27L118.113 174.656" stroke="#DBDFFF" stroke-width="3"/>
<path d="M109.317 128.165L118.113 174.656" stroke="#DBDFFF" stroke-width="3"/>
<path d="M84.187 206.07L118.113 174.656" stroke="#DBDFFF" stroke-width="3"/>
<path d="M84.187 206.07L80.4174 148.27" stroke="#DBDFFF" stroke-width="3"/>
<path d="M84.187 206.069L43.9783 208.583" stroke="#DBDFFF" stroke-width="3"/>
<path d="M37.6957 153.296L43.9783 208.583" stroke="#DBDFFF" stroke-width="3"/>
<path d="M8.71008e-07 183.452L43.9783 208.583" stroke="#DBDFFF" stroke-width="3"/>
<path d="M7.33929e-07 183.452L-13.8217 233.713" stroke="#DBDFFF" stroke-width="3"/>
<path d="M28.9 260.1L-13.8217 233.713" stroke="#DBDFFF" stroke-width="3"/>
<path d="M1.34832e-06 183.452L37.6957 153.296" stroke="#DBDFFF" stroke-width="3"/>
<path d="M-3.47806e-06 183.452L-16.3348 130.678" stroke="#DBDFFF" stroke-width="3"/>
<path d="M18.8478 100.522L-16.3348 130.678" stroke="#DBDFFF" stroke-width="3"/>
<path d="M18.8478 100.522L37.6957 153.296" stroke="#DBDFFF" stroke-width="3"/>
<path d="M149.526 16.3348L192.248 46.4913" stroke="#DBDFFF" stroke-width="3"/>
<path d="M243.765 74.1349L270.152 124.396" stroke="#DBDFFF" stroke-width="3"/>
<path d="M149.526 242.509L189.735 211.095" stroke="#DBDFFF" stroke-width="3"/>
<path d="M149.526 242.509L109.317 221.148" stroke="#DBDFFF" stroke-width="3"/>
<path d="M149.526 242.509L183.452 256.33" stroke="#DBDFFF" stroke-width="3"/>
<path d="M144.5 295.282L183.452 256.33" stroke="#DBDFFF" stroke-width="3"/>
<path d="M270.152 124.396L309.104 140.731" stroke="#DBDFFF" stroke-width="3"/>
<path d="M314.13 196.017L275.178 214.865" stroke="#DBDFFF" stroke-width="3"/>
<path d="M252.561 267.639L299.052 250.048" stroke="#DBDFFF" stroke-width="3"/>
<path d="M302.822 297.796L252.561 267.639" stroke="#DBDFFF" stroke-width="3"/>
<circle cx="163.348" cy="170.887" r="6.28261" fill="#929AE4"/>
<circle cx="189.735" cy="211.096" r="6.28261" fill="#929AE4"/>
<circle cx="234.97" cy="193.504" r="6.28261" fill="#929AE4"/>
<circle cx="229.943" cy="145.756" r="6.28261" fill="#929AE4"/>
<circle cx="223.661" cy="111.83" r="6.28261" fill="#929AE4"/>
<circle cx="270.152" cy="124.396" r="6.28261" fill="#929AE4"/>
<circle cx="290.257" cy="85.4435" r="6.28261" fill="#929AE4"/>
<circle cx="243.765" cy="74.1348" r="6.28261" fill="#929AE4"/>
<circle cx="236.226" cy="22.6174" r="6.28261" fill="#929AE4"/>
<circle cx="290.257" cy="37.6956" r="6.28261" fill="#929AE4"/>
<circle cx="275.178" cy="214.865" r="6.28261" fill="#929AE4"/>
<circle cx="252.561" cy="267.639" r="6.28261" fill="#929AE4"/>
<circle cx="229.943" cy="229.943" r="6.28261" fill="#929AE4"/>
<circle cx="183.452" cy="256.33" r="6.28261" fill="#929AE4"/>
<circle cx="149.526" cy="242.509" r="6.28261" fill="#929AE4"/>
<circle cx="109.317" cy="221.148" r="6.28261" fill="#929AE4"/>
<circle cx="118.113" cy="174.657" r="6.28261" fill="#929AE4"/>
<circle cx="80.4174" cy="148.27" r="6.28261" fill="#929AE4"/>
<circle cx="62.8261" cy="101.778" r="6.28261" fill="#929AE4"/>
<circle cx="51.5174" cy="59.0565" r="6.28261" fill="#929AE4"/>
<circle cx="96.7522" cy="30.1565" r="6.28261" fill="#929AE4"/>
<circle cx="131.935" cy="56.5435" r="6.28261" fill="#929AE4"/>
<circle cx="149.526" cy="16.3347" r="6.28261" fill="#929AE4"/>
<circle cx="192.248" cy="46.4913" r="6.28261" fill="#929AE4"/>
<circle cx="18.8478" cy="100.522" r="6.28261" fill="#929AE4"/>
<circle cx="37.6956" cy="153.296" r="6.28261" fill="#929AE4"/>
<circle cx="43.9783" cy="208.583" r="6.28261" fill="#929AE4"/>
<circle cx="84.187" cy="206.069" r="6.28261" fill="#929AE4"/>
<circle cx="70.3652" cy="255.074" r="6.28261" fill="#929AE4"/>
<circle cx="28.9" cy="260.1" r="6.28261" fill="#929AE4"/>
<circle cx="9.53674e-07" cy="183.452" r="6.28261" fill="#929AE4"/>
<circle cx="185.965" cy="129.422" r="6.28261" fill="#929AE4"/>
<circle cx="173.4" cy="87.9564" r="6.28261" fill="#929AE4"/>
<circle cx="109.317" cy="126.909" r="6.28261" fill="#929AE4"/>
<circle cx="139.474" cy="100.522" r="6.28261" fill="#929AE4"/>
</g>
</g>
<defs>
<clipPath id="clip0_238_966">
<rect width="289" height="289" fill="white"/>
</clipPath>
</defs>
</svg>
