<svg width="289" height="289" viewBox="0 0 289 289" fill="none" xmlns="http://www.w3.org/2000/svg">
<rect width="289" height="289" fill="#D7EAED"/>
<g clip-path="url(#clip0_213_55)">
<mask id="mask0_213_55" style="mask-type:luminance" maskUnits="userSpaceOnUse" x="0" y="14" width="261" height="261">
<path d="M261 14H0V275H261V14Z" fill="white"/>
</mask>
<g mask="url(#mask0_213_55)">
<path d="M-16.7798 211.044L-20.9204 201.022C-21.6157 199.339 -20.7987 197.413 -19.1055 196.742L36.833 174.608L42.4536 189.832L-12.5062 212.808C-14.1735 213.505 -16.0898 212.714 -16.7798 211.044Z" fill="#2B2B2B"/>
<path d="M42.0135 189.545L36.7566 174.942C36.5054 174.245 36.7566 173.465 37.3683 173.045L195.21 64.7127C198.204 62.6579 202.299 63.4426 204.322 66.4591L256.816 144.756C258.978 147.98 257.864 152.367 254.427 154.169L116.046 226.715C114.615 227.465 113.004 226.965 112.165 225.584C109.537 221.258 102.381 211.971 80.7266 201.144C60.8198 191.191 47.7297 190.596 43.7413 190.694C42.9812 190.713 42.2712 190.261 42.0135 189.545Z" fill="#50B39B"/>
<path d="M171.139 100.742L117.535 156.372C116.936 156.994 117.377 158.03 118.24 158.03H153.883C154.577 158.03 155.051 158.732 154.791 159.376L141.349 192.64C140.944 193.64 142.221 194.463 142.965 193.681L196.694 137.222C197.287 136.599 196.845 135.568 195.985 135.568H159.119C158.409 135.568 157.935 134.837 158.226 134.189L172.737 101.822C173.186 100.821 171.901 99.9522 171.139 100.742Z" fill="#2B2B2B"/>
<path fill-rule="evenodd" clip-rule="evenodd" d="M250.792 156.074L254.427 154.168C257.864 152.366 258.978 147.98 256.816 144.756L204.322 66.4588C202.299 63.4426 198.204 62.6576 195.21 64.7123L191.754 67.0842L250.792 156.074Z" fill="#2B2B2B"/>
<path d="M250.792 156.074L250.657 156.164L250.738 156.287L250.868 156.218L250.792 156.074ZM191.754 67.0842L191.662 66.9498L191.529 67.0408L191.618 67.1746L191.754 67.0842ZM254.351 154.024L250.717 155.929L250.868 156.218L254.502 154.313L254.351 154.024ZM256.681 144.847C258.789 147.99 257.703 152.267 254.351 154.024L254.502 154.313C258.026 152.466 259.167 147.97 256.952 144.665L256.681 144.847ZM204.186 66.5495L256.681 144.847L256.952 144.665L204.457 66.3677L204.186 66.5495ZM195.302 64.8471C198.221 62.8436 202.215 63.6086 204.186 66.5495L204.457 66.3677C202.385 63.2762 198.186 62.4717 195.117 64.5779L195.302 64.8471ZM191.846 67.2189L195.302 64.8471L195.117 64.5779L191.662 66.9498L191.846 67.2189ZM250.928 155.984L191.89 66.9941L191.618 67.1746L250.657 156.164L250.928 155.984Z" fill="black"/>
</g>
</g>
<defs>
<clipPath id="clip0_213_55">
<rect width="261" height="261" fill="white" transform="translate(0 14)"/>
</clipPath>
</defs>
</svg>
