<svg width="289" height="289" viewBox="0 0 289 289" fill="none" xmlns="http://www.w3.org/2000/svg">
<rect width="289" height="289" fill="#DCDCDC"/>
<circle cx="144.5" cy="144.5" r="132.5" fill="#3B86F7"/>
<g clip-path="url(#clip0_267_2)">
<path d="M141.375 95.2812V122.094H166.125" stroke="#DCDCDC" stroke-width="10" stroke-linecap="round" stroke-linejoin="round"/>
<path d="M163.851 171.25C170.337 177.881 178.483 182.295 187.271 183.939C196.059 185.584 205.1 184.387 213.263 180.497C221.427 176.607 228.351 170.197 233.171 162.068C237.991 153.94 240.494 144.452 240.365 134.792C240.236 125.131 237.483 115.726 232.448 107.751C227.414 99.7765 220.322 93.5857 212.058 89.9525C203.795 86.3192 194.726 85.4046 185.985 87.323C177.244 89.2414 169.219 93.9076 162.913 100.739L141.375 122.094" stroke="#DCDCDC" stroke-width="10" stroke-linecap="round" stroke-linejoin="round"/>
</g>
<path d="M79.7799 207H55.0119V202.008L63.0759 200.184V145.368L55.0119 143.448V138.456H79.7799V143.448L71.7159 145.368V200.184L79.7799 202.008V207ZM147.927 172.056C147.927 179.736 146.487 186.168 143.607 191.352C140.791 196.536 136.727 200.44 131.415 203.064C126.103 205.688 119.671 207 112.119 207H93.0151V138.456H114.135C121.047 138.456 127.031 139.736 132.087 142.296C137.143 144.856 141.047 148.632 143.799 153.624C146.551 158.552 147.927 164.696 147.927 172.056ZM138.807 172.344C138.807 166.264 137.783 161.272 135.735 157.368C133.751 153.464 130.807 150.584 126.903 148.728C123.063 146.808 118.391 145.848 112.887 145.848H101.655V199.608H110.967C120.247 199.608 127.191 197.336 131.799 192.792C136.471 188.184 138.807 181.368 138.807 172.344Z" fill="#DCDCDC"/>
<defs>
<clipPath id="clip0_267_2">
<rect width="132" height="143" fill="white" transform="translate(129 64)"/>
</clipPath>
</defs>
</svg>
