<svg width="289" height="289" viewBox="0 0 289 289" fill="none" xmlns="http://www.w3.org/2000/svg">
<rect width="289" height="289" fill="#694D39"/>
<path d="M134.41 108.188L131.615 108.356C129.951 108.455 128.386 109.182 127.236 110.389V110.389C126.475 111.188 125.927 112.165 125.642 113.23L125.592 113.414C125.217 114.814 125.265 116.293 125.729 117.666L125.839 117.991C126.079 118.698 126.41 119.371 126.826 119.991L128.218 122.07L130.083 124.336" stroke="#75ABC9" stroke-width="6"/>
<circle cx="134.41" cy="108.188" r="3.41176" transform="rotate(15 134.41 108.188)" fill="#75ABC9"/>
<rect x="96.798" y="112.521" width="5.45882" height="23.8824" rx="2.72941" transform="rotate(15 96.798 112.521)" fill="#75ABC9"/>
<rect x="90.3549" y="132.875" width="5.45882" height="23.6917" rx="2.72941" transform="rotate(-30 90.3549 132.875)" fill="#75ABC9"/>
<rect x="99.8211" y="150.541" width="5.45882" height="18.841" rx="2.72941" transform="rotate(-53.2747 99.8211 150.541)" fill="#75ABC9"/>
<rect x="91.6936" y="165.7" width="5.45882" height="23.847" rx="2.72941" transform="rotate(-81.3324 91.6936 165.7)" fill="#75ABC9"/>
<rect x="84.4833" y="192.495" width="5.45882" height="36.1213" rx="2.72941" transform="rotate(-106.223 84.4833 192.495)" fill="#75ABC9"/>
<rect width="5.45882" height="46.6224" rx="2.72941" transform="matrix(-0.922845 -0.385171 -0.385171 0.922845 89.7089 188.091)" fill="#75ABC9"/>
<rect x="61.0098" y="237.703" width="5.45882" height="15.9263" rx="2.72941" transform="rotate(-126.049 61.0098 237.703)" fill="#75ABC9"/>
<rect width="5.45882" height="17.6174" rx="2.72941" transform="matrix(-0.289709 -0.957115 -0.957115 0.289709 98.0201 165.311)" fill="#75ABC9"/>
<rect width="5.45882" height="17.7412" rx="2.72941" transform="matrix(0.258819 -0.965926 -0.965926 -0.258819 84.5356 170.411)" fill="#75ABC9"/>
<rect x="89.8158" y="105.886" width="5.45882" height="15.7465" rx="2.72941" transform="rotate(-30 89.8158 105.886)" fill="#75ABC9"/>
<path fill-rule="evenodd" clip-rule="evenodd" d="M121.127 189.399C121.127 189.399 121.127 189.399 121.127 189.399C110.57 186.571 99.7198 192.835 96.8912 203.392L94.2421 213.278C91.4135 223.835 97.6781 234.685 108.234 237.514C108.235 237.514 108.235 237.514 108.235 237.514L121.127 189.399Z" fill="#75ABC9"/>
<path fill-rule="evenodd" clip-rule="evenodd" d="M138.963 122.833C138.854 122.802 138.744 122.771 138.634 122.742C129.352 120.254 119.811 125.763 117.324 135.045C114.837 144.328 120.345 153.869 129.627 156.356C129.738 156.385 129.848 156.414 129.958 156.441L138.963 122.833Z" fill="#75ABC9"/>
<path fill-rule="evenodd" clip-rule="evenodd" d="M130.663 153.81C130.554 153.779 130.444 153.749 130.334 153.719C121.416 151.33 112.684 154.999 110.83 161.916C108.977 168.832 114.705 176.376 123.623 178.765C123.733 178.795 123.843 178.823 123.953 178.851L130.663 153.81Z" fill="#75ABC9"/>
<path fill-rule="evenodd" clip-rule="evenodd" d="M124.835 175.558L116.267 173.262L111.852 189.74L120.42 192.036L124.835 175.558Z" fill="#75ABC9"/>
<path d="M150.229 112.426L152.566 113.969C153.957 114.888 154.949 116.299 155.341 117.919V117.919C155.6 118.992 155.587 120.112 155.301 121.177L155.252 121.361C154.877 122.761 154.096 124.018 153.007 124.975L152.75 125.202C152.189 125.694 151.565 126.111 150.895 126.44L148.65 127.545L145.902 128.574" stroke="#75ABC9" stroke-width="6"/>
<circle cx="3.41176" cy="3.41176" r="3.41176" transform="matrix(-0.965926 -0.258819 -0.258819 0.965926 154.407 110.014)" fill="#75ABC9"/>
<rect width="5.45882" height="23.8824" rx="2.72941" transform="matrix(-0.965926 -0.258819 -0.258819 0.965926 180.635 134.985)" fill="#75ABC9"/>
<rect width="5.45882" height="23.6917" rx="2.72941" transform="matrix(-0.5 -0.866025 -0.866025 0.5 176.038 155.833)" fill="#75ABC9"/>
<rect width="5.45882" height="18.841" rx="2.72941" transform="matrix(-0.117109 -0.993119 -0.993119 0.117109 159.007 166.399)" fill="#75ABC9"/>
<rect width="5.45882" height="23.847" rx="2.72941" transform="matrix(0.363778 -0.931486 -0.931486 -0.363778 158.466 183.592)" fill="#75ABC9"/>
<rect width="5.45882" height="36.1213" rx="2.72941" transform="matrix(0.722038 -0.691853 -0.691853 -0.722038 151.313 210.402)" fill="#75ABC9"/>
<rect x="148.989" y="203.975" width="5.45882" height="46.6224" rx="2.72941" transform="rotate(7.34566 148.989 203.975)" fill="#75ABC9"/>
<rect width="5.45882" height="15.9263" rx="2.72941" transform="matrix(0.913893 -0.405954 -0.405954 -0.913893 149.038 261.29)" fill="#75ABC9"/>
<rect x="153.182" y="180.092" width="5.45882" height="17.6174" rx="2.72941" transform="rotate(-43.1595 153.182 180.092)" fill="#75ABC9"/>
<rect x="162.31" y="191.251" width="5.45882" height="17.7412" rx="2.72941" transform="rotate(-75 162.31 191.251)" fill="#75ABC9"/>
<rect width="5.45882" height="15.7465" rx="2.72941" transform="matrix(-0.5 -0.866025 -0.866025 0.5 189.999 132.73)" fill="#75ABC9"/>
<path fill-rule="evenodd" clip-rule="evenodd" d="M121.127 189.399C121.127 189.399 121.127 189.399 121.127 189.399C131.683 192.228 137.948 203.078 135.119 213.635L132.47 223.521C129.641 234.078 118.791 240.342 108.235 237.514C108.235 237.514 108.234 237.514 108.234 237.514L121.127 189.399Z" fill="#75ABC9"/>
<path fill-rule="evenodd" clip-rule="evenodd" d="M138.963 122.833C139.073 122.86 139.183 122.889 139.294 122.918C148.576 125.405 154.084 134.946 151.597 144.229C149.11 153.511 139.569 159.02 130.287 156.532C130.177 156.503 130.067 156.472 129.958 156.441L138.963 122.833Z" fill="#75ABC9"/>
<path fill-rule="evenodd" clip-rule="evenodd" d="M130.663 153.81C130.773 153.838 130.883 153.866 130.993 153.896C139.911 156.286 145.639 163.829 143.786 170.746C141.932 177.662 133.2 181.331 124.282 178.942C124.172 178.912 124.062 178.882 123.953 178.851L130.663 153.81Z" fill="#75ABC9"/>
<path fill-rule="evenodd" clip-rule="evenodd" d="M124.835 175.558L133.404 177.854L128.989 194.331L120.42 192.036L124.835 175.558Z" fill="#75ABC9"/>
<rect x="44.442" y="40.6313" width="28.442" height="28.442" transform="rotate(30 44.442 40.6313)" fill="#A88080"/>
<rect x="58.6629" y="16" width="28.442" height="28.442" transform="rotate(30 58.6629 16)" fill="#AC6D6D"/>
<rect x="30.2209" y="65.2628" width="28.442" height="28.442" transform="rotate(30 30.2209 65.2628)" fill="#BF7979"/>
<rect x="69.0734" y="54.8523" width="28.442" height="28.442" transform="rotate(30 69.0734 54.8523)" fill="#B48C8C"/>
<rect x="255.688" y="198.498" width="31.0721" height="31.0721" transform="rotate(171.73 255.688 198.498)" fill="#9094C1" fill-opacity="0.57"/>
<rect x="260.158" y="229.247" width="31.0721" height="31.0721" transform="rotate(171.73 260.158 229.247)" fill="#4551BF" fill-opacity="0.57"/>
<rect x="251.219" y="167.749" width="31.0721" height="31.0721" transform="rotate(171.73 251.219 167.749)" fill="#757ED4" fill-opacity="0.57"/>
<rect x="264.627" y="259.996" width="31.0721" height="31.0721" transform="rotate(171.73 264.627 259.996)" fill="#6572EF" fill-opacity="0.57"/>
<rect x="264.6" y="42.8215" width="32.4967" height="32.4967" transform="rotate(105 264.6 42.8215)" fill="#457C4E" fill-opacity="0.57"/>
<rect x="256.19" y="74.2109" width="32.4967" height="32.4967" transform="rotate(105 256.19 74.2109)" fill="#5EA369" fill-opacity="0.57"/>
<rect x="233.211" y="34.4108" width="32.4967" height="32.4967" transform="rotate(105 233.211 34.4108)" fill="#5E7E63" fill-opacity="0.57"/>
</svg>
