<svg width="289" height="289" viewBox="0 0 289 289" fill="none" xmlns="http://www.w3.org/2000/svg">
<g clip-path="url(#clip0_227_633)">
<rect width="289" height="289" fill="#FFCCCC"/>
<path d="M38.3895 78.0361L19.779 86.19C18.1001 86.9256 18.8011 89.4498 20.6189 89.2143C20.7416 89.1984 20.8658 89.1969 20.989 89.2099L26.667 89.8095L30.7688 90.2426C31.9373 90.3659 33.0827 90.6531 34.1712 91.0957L34.8444 91.3694C36.3305 91.9736 37.6427 92.9386 38.6624 94.1772C39.8364 95.6033 40.5767 97.3363 40.7955 99.1705L40.9113 100.141C41.1295 101.971 40.956 103.826 40.4021 105.584L40.0366 106.744C39.4307 108.667 38.5168 110.479 37.3307 112.109L34.0983 116.552L28.2661 122.923L20.1234 129.626L11.02 136.875C9.90349 137.764 10.7637 139.551 12.155 139.232L21.2808 135.965L28.7992 134.127C30.8018 133.637 32.8393 133.303 34.8934 133.128L47.0715 132.087L64.5454 132.009L74.2789 132.396L84.2292 133.158L93.2699 134.946L105.488 137.902L111.251 140.081L113.924 141.185C116.513 142.254 118.963 143.634 121.219 145.295L121.986 145.86C123.271 146.807 124.461 147.876 125.54 149.052C128.029 151.765 129.88 155.001 130.957 158.522L131.666 160.841C132.356 163.098 132.819 165.418 133.047 167.767L133.211 169.448L132.807 178.804C132.784 179.348 133.492 179.577 133.792 179.123L135.769 176.48L138.223 172.06L146.71 158.15L149.06 155.101C150.732 152.931 152.622 150.939 154.702 149.156L156.931 147.244L164.381 141.941L171.889 137.607L176.857 135.365C178.815 134.481 180.944 134.041 183.092 134.078L183.34 134.082C184.366 134.099 185.386 134.242 186.377 134.508L188.886 135.18C190.495 135.611 192.209 135.385 193.651 134.553L199.599 130.117L201.797 128.068C203.148 126.808 204.366 125.413 205.431 123.904L206.21 122.801C207.006 121.674 207.656 120.45 208.144 119.16L208.855 117.278C209.336 116.006 209.496 114.635 209.322 113.287L209.175 112.153C208.976 110.62 208.156 109.237 206.906 108.328C205.935 107.622 205.216 106.623 204.853 105.478L197.504 82.2742C197.391 81.8772 196.816 81.916 196.757 82.3247L195.645 90.0104C195.379 91.8473 192.776 91.9751 192.331 90.1731L191.627 87.3196C191.338 86.1458 189.644 86.2227 189.462 87.4178L188.568 91.9382L187.651 96.2572C187.464 97.1392 186.911 97.9003 186.13 98.3511C185.703 98.598 185.223 98.742 184.73 98.7716L182.577 98.9008C179.437 99.0893 176.32 98.2542 173.695 96.5208C171.59 94.9893 170.566 92.3748 171.071 89.821L171.746 86.4101C171.935 85.4525 172.239 84.5212 172.652 83.6366L176.504 75.378L178.788 71.0824C180.301 68.2366 184.353 68.1656 185.965 70.9567L186.166 71.3055C186.581 72.0247 186.694 72.8793 186.479 73.6815L184.268 81.9315C183.88 83.379 185.756 84.318 186.682 83.1403C186.8 82.9904 186.948 82.8666 187.116 82.7768L190.962 80.7242C195.717 78.1864 199.383 74.0015 201.273 68.954L201.688 67.846L203.402 62.231C203.965 60.3865 203.737 58.3911 202.773 56.721C201.678 54.8245 201.539 52.5231 202.4 50.5092L202.524 50.2181C202.665 49.8878 202.783 49.5479 202.876 49.2009L204.049 44.8205C204.861 41.7918 205.179 38.6521 204.991 35.5222L204.925 34.4228C204.849 33.1493 204.641 31.887 204.305 30.6561L203.445 27.504C202.879 25.4259 201.612 23.607 199.86 22.3544C198.836 21.6225 197.675 21.1048 196.446 20.8321L188.68 19.1089C185.921 18.4968 183.105 18.1787 180.279 18.1601L155.387 17.9953L142.166 16.7134C133.868 15.9089 125.526 17.7173 118.306 21.8858L111.388 25.8799L92.5169 38.2765L74.1306 54.113L64.2059 63.9252C60.6569 67.434 56.4827 70.2476 51.8987 72.2209L38.3895 78.0361Z" fill="#252525" stroke="#DB4D4D" stroke-width="4"/>
<path d="M136.834 29.2077L142.438 31.9786L132.662 34.119L120.85 37.9353L114.786 40.4356L106.094 44.453L97.4593 49.438L88.0743 54.8565L93.4305 50.2624L101.473 45.1188L107.854 41.4342L113.486 38.1832L120.084 34.874L126.741 32.5324L136.834 29.2077Z" fill="#ECECEC" fill-opacity="0.7"/>
<path d="M157.854 52.6102L164.267 55.9152L39.5593 123.41L157.854 52.6102Z" fill="#D9D9D9"/>
<path d="M165.075 56.4492L171.488 59.7542L71.6158 113.912L165.075 56.4492Z" fill="#D9D9D9"/>
<path d="M172.297 60.2883L179.086 63.3766L106.242 101.929L172.297 60.2883Z" fill="#D9D9D9"/>
<path d="M116.746 49.0515L115.104 50.3037C114.212 50.9848 114.946 52.3935 116.016 52.0512L117.182 51.6777C117.233 51.6615 117.285 51.6494 117.337 51.6414L120.198 51.2064C120.382 51.1785 120.57 51.2024 120.741 51.2754L122.472 52.015L126.484 53.1379C126.595 53.169 126.711 53.1807 126.826 53.1723L131.455 52.8353L137.456 52.1226C137.515 52.1156 137.573 52.1034 137.63 52.086L141.8 50.814L144.94 49.5372C145.008 49.5092 145.08 49.4889 145.154 49.4768L147.47 49.0949L150.233 48.9734C150.782 48.9493 151.208 48.4874 151.189 47.9387L151.068 44.5582C151.062 44.3949 151.016 44.2354 150.935 44.0939L148.884 40.5416C148.828 40.4461 148.758 40.3604 148.675 40.2879L145.758 37.7443C145.655 37.6541 145.534 37.5861 145.403 37.5447L142.362 36.5801L140.028 35.8398C139.859 35.7864 139.679 35.7786 139.507 35.8172L136.585 36.4719C136.521 36.4861 136.46 36.5064 136.4 36.5324L132.344 38.3174C132.294 38.3394 132.246 38.3655 132.2 38.3954L124.58 43.3691L116.746 49.0515Z" fill="#DB4D4D" stroke="#DB4D4D"/>
<path d="M124.91 44.1004L117.46 49.4027C116.631 50.0214 117.377 51.3135 118.327 50.9043L120.134 50.2931C120.321 50.2298 120.523 50.2233 120.714 50.2744L122.79 50.8307L126.186 51.7407C126.29 51.7685 126.397 51.7794 126.505 51.7729L131.18 51.4923L136.177 50.6098L139.989 49.4099L143.801 48.2101L146.009 47.3828C146.18 47.3189 146.365 47.3028 146.544 47.3363L148.736 47.7467C149.435 47.8774 150.042 47.2591 149.9 46.5633L149.406 44.1504C149.385 44.0451 149.346 43.944 149.293 43.8509L147.514 40.7699C147.454 40.666 147.376 40.5738 147.283 40.4976L144.73 38.3975C144.62 38.3068 144.492 38.2407 144.354 38.2038L141.602 37.4665L139.484 36.8989C139.32 36.855 139.147 36.8535 138.982 36.8948L136.259 37.5765C136.202 37.591 136.145 37.6106 136.091 37.6351L132.27 39.3594C132.225 39.3799 132.181 39.4038 132.139 39.4309L124.91 44.1004Z" fill="#DB4D4D" stroke="#252525" stroke-width="2"/>
<ellipse cx="140.391" cy="43.1712" rx="1.73391" ry="4.76825" transform="rotate(-30 140.391 43.1712)" fill="#252525"/>
<path d="M210.534 176.161C218.699 167.996 232.641 171.731 235.63 182.885L253.578 249.869C256.566 261.023 246.36 271.229 235.207 268.24L168.223 250.292C157.069 247.303 153.333 233.362 161.498 225.197L210.534 176.161Z" fill="#262626"/>
<path d="M232.277 165.281C229.011 168.547 223.435 167.052 222.239 162.591L215.668 138.065C214.472 133.604 218.555 129.521 223.016 130.717L247.542 137.288C252.003 138.484 253.498 144.061 250.232 147.327L232.277 165.281Z" fill="#262626"/>
<path fill-rule="evenodd" clip-rule="evenodd" d="M188.323 210.536L168.793 229.783C164.388 234.124 166.364 241.608 172.337 243.208L236.058 260.282C242.032 261.883 247.485 256.389 245.84 250.428L238.55 223.994L188.323 210.536Z" fill="#DB4D4D"/>
<circle cx="229.515" cy="232.332" r="2.25928" transform="rotate(15 229.515 232.332)" fill="#262626"/>
<rect x="228.703" y="237.217" width="4.56705" height="15.0331" rx="2.28353" transform="rotate(-16.1897 228.703 237.217)" fill="#262626"/>
<rect x="219.414" y="135.599" width="29.8225" height="50.6078" transform="rotate(15 219.414 135.599)" fill="#262626"/>
</g>
<defs>
<clipPath id="clip0_227_633">
<rect width="289" height="289" fill="white"/>
</clipPath>
</defs>
</svg>
