<svg width="289" height="289" viewBox="0 0 289 289" fill="none" xmlns="http://www.w3.org/2000/svg">
<g clip-path="url(#clip0_238_1673)">
<rect width="289" height="289" fill="#7F5F81"/>
<path d="M0 79C231.2 78.1801 289 77.9752 289 77.9752" stroke="black" stroke-width="7"/>
<path d="M57 79C57 247 57 289 57 289" stroke="black" stroke-width="7"/>
<path d="M289 169C103.4 169 57 169 57 169" stroke="black" stroke-width="7"/>
<path d="M188 50C37.6 50 3.57628e-07 50 3.57628e-07 50" stroke="black" stroke-width="7"/>
<path d="M289 40C208.2 40 188 40 188 40" stroke="black" stroke-width="7"/>
<path d="M57 220C11.4 220 1.51992e-06 220 1.51992e-06 220" stroke="black" stroke-width="7"/>
<path d="M124 289C124 193 124 169 124 169" stroke="black" stroke-width="7"/>
<path d="M215 169C215 96.2 215 78 215 78" stroke="black" stroke-width="7"/>
<path d="M29 220C29 106.4 29 78 29 78" stroke="black" stroke-width="7"/>
<path d="M19 289C19 233.8 19 220 19 220" stroke="black" stroke-width="7"/>
<path d="M201 78C201 47.6 201 40 201 40" stroke="black" stroke-width="7"/>
<path d="M19 78C19 55.6 19 50 19 50" stroke="black" stroke-width="7"/>
<path d="M83 50C83 10 83 1.62423e-06 83 1.62423e-06" stroke="black" stroke-width="7"/>
<path d="M273 40C273 8 273 1.93715e-07 273 1.93715e-07" stroke="black" stroke-width="7"/>
<path d="M188 79C188 15.8 188 -1.96695e-06 188 -1.96695e-06" stroke="black" stroke-width="7"/>
</g>
<defs>
<clipPath id="clip0_238_1673">
<rect width="289" height="289" fill="white"/>
</clipPath>
</defs>
</svg>
