<svg width="289" height="289" viewBox="0 0 289 289" fill="none" xmlns="http://www.w3.org/2000/svg">
<rect width="289" height="289" fill="#2C3045"/>
<rect x="39" y="39" width="47.0757" height="47.0757" rx="8" fill="url(#paint0_linear_227_748)"/>
<rect x="41.5219" y="41.522" width="42.0319" height="42.0319" rx="6" fill="url(#paint1_linear_227_748)"/>
<rect x="93.6414" y="39" width="47.0757" height="47.0757" rx="8" fill="url(#paint2_linear_227_748)"/>
<rect x="96.1633" y="41.522" width="42.0319" height="42.0319" rx="6" fill="url(#paint3_linear_227_748)"/>
<rect x="148.283" y="39" width="47.0757" height="47.0757" rx="8" fill="url(#paint4_linear_227_748)"/>
<rect x="150.805" y="41.522" width="42.0319" height="42.0319" rx="6" fill="url(#paint5_linear_227_748)"/>
<rect x="202.924" y="39" width="47.0757" height="47.0757" rx="8" fill="url(#paint6_linear_227_748)"/>
<rect x="205.446" y="41.522" width="42.0319" height="42.0319" rx="6" fill="url(#paint7_linear_227_748)"/>
<rect x="93.6414" y="93.6415" width="47.0757" height="47.0757" rx="8" fill="url(#paint8_linear_227_748)"/>
<rect x="96.1633" y="96.1635" width="42.0319" height="42.0319" rx="6" fill="url(#paint9_linear_227_748)"/>
<rect x="148.283" y="93.6415" width="47.0757" height="47.0757" rx="8" fill="url(#paint10_linear_227_748)"/>
<rect x="150.805" y="96.1635" width="42.0319" height="42.0319" rx="6" fill="url(#paint11_linear_227_748)"/>
<rect x="202.924" y="93.6415" width="47.0757" height="47.0757" rx="8" fill="url(#paint12_linear_227_748)"/>
<rect x="205.446" y="96.1635" width="42.0319" height="42.0319" rx="6" fill="url(#paint13_linear_227_748)"/>
<rect x="39" y="93.6415" width="47.0757" height="47.0757" rx="8" fill="url(#paint14_linear_227_748)"/>
<rect x="41.5219" y="96.1635" width="42.0319" height="42.0319" rx="6" fill="url(#paint15_linear_227_748)"/>
<rect x="93.6414" y="148.283" width="47.0757" height="47.0757" rx="8" fill="url(#paint16_linear_227_748)"/>
<rect x="96.1633" y="150.805" width="42.0319" height="42.0319" rx="6" fill="url(#paint17_linear_227_748)"/>
<rect x="148.283" y="148.283" width="47.0757" height="47.0757" rx="8" fill="url(#paint18_linear_227_748)"/>
<rect x="150.805" y="150.805" width="42.0319" height="42.0319" rx="6" fill="url(#paint19_linear_227_748)"/>
<rect x="202.924" y="148.283" width="47.0757" height="47.0757" rx="8" fill="url(#paint20_linear_227_748)"/>
<rect x="205.446" y="150.805" width="42.0319" height="42.0319" rx="6" fill="url(#paint21_linear_227_748)"/>
<rect x="39" y="148.283" width="47.0757" height="47.0757" rx="8" fill="url(#paint22_linear_227_748)"/>
<rect x="41.5219" y="150.805" width="42.0319" height="42.0319" rx="6" fill="url(#paint23_linear_227_748)"/>
<rect x="93.6414" y="202.924" width="47.0757" height="47.0757" rx="8" fill="url(#paint24_linear_227_748)"/>
<rect x="96.1633" y="205.446" width="42.0319" height="42.0319" rx="6" fill="url(#paint25_linear_227_748)"/>
<rect x="148.283" y="202.924" width="47.0757" height="47.0757" rx="8" fill="url(#paint26_linear_227_748)"/>
<rect x="150.805" y="205.446" width="42.0319" height="42.0319" rx="6" fill="url(#paint27_linear_227_748)"/>
<rect x="202.924" y="202.924" width="47.0757" height="47.0757" rx="8" fill="url(#paint28_linear_227_748)"/>
<rect x="205.446" y="205.446" width="42.0319" height="42.0319" rx="6" fill="url(#paint29_linear_227_748)"/>
<rect x="39" y="202.924" width="47.0757" height="47.0757" rx="8" fill="url(#paint30_linear_227_748)"/>
<rect x="41.5219" y="205.446" width="42.0319" height="42.0319" rx="6" fill="url(#paint31_linear_227_748)"/>
<defs>
<linearGradient id="paint0_linear_227_748" x1="62.5378" y1="39" x2="62.5378" y2="86.0757" gradientUnits="userSpaceOnUse">
<stop stop-color="#737BA5"/>
<stop offset="1" stop-color="#464F7E"/>
</linearGradient>
<linearGradient id="paint1_linear_227_748" x1="62.5378" y1="41.522" x2="62.5378" y2="83.5538" gradientUnits="userSpaceOnUse">
<stop stop-color="#7F88B5"/>
<stop offset="1" stop-color="#AEB7E6"/>
</linearGradient>
<linearGradient id="paint2_linear_227_748" x1="117.179" y1="39" x2="117.179" y2="86.0757" gradientUnits="userSpaceOnUse">
<stop stop-color="#737BA5"/>
<stop offset="1" stop-color="#464F7E"/>
</linearGradient>
<linearGradient id="paint3_linear_227_748" x1="117.179" y1="41.522" x2="117.179" y2="83.5538" gradientUnits="userSpaceOnUse">
<stop stop-color="#7F88B5"/>
<stop offset="1" stop-color="#AEB7E6"/>
</linearGradient>
<linearGradient id="paint4_linear_227_748" x1="171.821" y1="39" x2="171.821" y2="86.0757" gradientUnits="userSpaceOnUse">
<stop stop-color="#737BA5"/>
<stop offset="1" stop-color="#464F7E"/>
</linearGradient>
<linearGradient id="paint5_linear_227_748" x1="171.821" y1="41.522" x2="171.821" y2="83.5538" gradientUnits="userSpaceOnUse">
<stop stop-color="#7F88B5"/>
<stop offset="1" stop-color="#AEB7E6"/>
</linearGradient>
<linearGradient id="paint6_linear_227_748" x1="226.462" y1="39" x2="226.462" y2="86.0757" gradientUnits="userSpaceOnUse">
<stop stop-color="#737BA5"/>
<stop offset="1" stop-color="#464F7E"/>
</linearGradient>
<linearGradient id="paint7_linear_227_748" x1="226.462" y1="41.522" x2="226.462" y2="83.5538" gradientUnits="userSpaceOnUse">
<stop stop-color="#7F88B5"/>
<stop offset="1" stop-color="#AEB7E6"/>
</linearGradient>
<linearGradient id="paint8_linear_227_748" x1="117.179" y1="93.6415" x2="117.179" y2="140.717" gradientUnits="userSpaceOnUse">
<stop stop-color="#737BA5"/>
<stop offset="1" stop-color="#464F7E"/>
</linearGradient>
<linearGradient id="paint9_linear_227_748" x1="117.179" y1="96.1635" x2="117.179" y2="138.195" gradientUnits="userSpaceOnUse">
<stop stop-color="#7F88B5"/>
<stop offset="1" stop-color="#AEB7E6"/>
</linearGradient>
<linearGradient id="paint10_linear_227_748" x1="171.821" y1="93.6415" x2="171.821" y2="140.717" gradientUnits="userSpaceOnUse">
<stop stop-color="#737BA5"/>
<stop offset="1" stop-color="#464F7E"/>
</linearGradient>
<linearGradient id="paint11_linear_227_748" x1="171.821" y1="96.1635" x2="171.821" y2="138.195" gradientUnits="userSpaceOnUse">
<stop stop-color="#7F88B5"/>
<stop offset="1" stop-color="#AEB7E6"/>
</linearGradient>
<linearGradient id="paint12_linear_227_748" x1="226.462" y1="93.6415" x2="226.462" y2="140.717" gradientUnits="userSpaceOnUse">
<stop stop-color="#737BA5"/>
<stop offset="1" stop-color="#464F7E"/>
</linearGradient>
<linearGradient id="paint13_linear_227_748" x1="226.462" y1="96.1635" x2="226.462" y2="138.195" gradientUnits="userSpaceOnUse">
<stop stop-color="#7F88B5"/>
<stop offset="1" stop-color="#AEB7E6"/>
</linearGradient>
<linearGradient id="paint14_linear_227_748" x1="62.5378" y1="93.6415" x2="62.5378" y2="140.717" gradientUnits="userSpaceOnUse">
<stop stop-color="#737BA5"/>
<stop offset="1" stop-color="#464F7E"/>
</linearGradient>
<linearGradient id="paint15_linear_227_748" x1="62.5378" y1="96.1635" x2="62.5378" y2="138.195" gradientUnits="userSpaceOnUse">
<stop stop-color="#7F88B5"/>
<stop offset="1" stop-color="#AEB7E6"/>
</linearGradient>
<linearGradient id="paint16_linear_227_748" x1="117.179" y1="148.283" x2="117.179" y2="195.359" gradientUnits="userSpaceOnUse">
<stop stop-color="#737BA5"/>
<stop offset="1" stop-color="#464F7E"/>
</linearGradient>
<linearGradient id="paint17_linear_227_748" x1="117.179" y1="150.805" x2="117.179" y2="192.837" gradientUnits="userSpaceOnUse">
<stop stop-color="#7F88B5"/>
<stop offset="1" stop-color="#AEB7E6"/>
</linearGradient>
<linearGradient id="paint18_linear_227_748" x1="171.821" y1="148.283" x2="171.821" y2="195.359" gradientUnits="userSpaceOnUse">
<stop stop-color="#737BA5"/>
<stop offset="1" stop-color="#464F7E"/>
</linearGradient>
<linearGradient id="paint19_linear_227_748" x1="171.821" y1="150.805" x2="171.821" y2="192.837" gradientUnits="userSpaceOnUse">
<stop stop-color="#7F88B5"/>
<stop offset="1" stop-color="#AEB7E6"/>
</linearGradient>
<linearGradient id="paint20_linear_227_748" x1="226.462" y1="148.283" x2="226.462" y2="195.359" gradientUnits="userSpaceOnUse">
<stop stop-color="#737BA5"/>
<stop offset="1" stop-color="#464F7E"/>
</linearGradient>
<linearGradient id="paint21_linear_227_748" x1="226.462" y1="150.805" x2="226.462" y2="192.837" gradientUnits="userSpaceOnUse">
<stop stop-color="#7F88B5"/>
<stop offset="1" stop-color="#AEB7E6"/>
</linearGradient>
<linearGradient id="paint22_linear_227_748" x1="62.5378" y1="148.283" x2="62.5378" y2="195.359" gradientUnits="userSpaceOnUse">
<stop stop-color="#737BA5"/>
<stop offset="1" stop-color="#464F7E"/>
</linearGradient>
<linearGradient id="paint23_linear_227_748" x1="62.5378" y1="150.805" x2="62.5378" y2="192.837" gradientUnits="userSpaceOnUse">
<stop stop-color="#7F88B5"/>
<stop offset="1" stop-color="#AEB7E6"/>
</linearGradient>
<linearGradient id="paint24_linear_227_748" x1="117.179" y1="202.924" x2="117.179" y2="250" gradientUnits="userSpaceOnUse">
<stop stop-color="#737BA5"/>
<stop offset="1" stop-color="#464F7E"/>
</linearGradient>
<linearGradient id="paint25_linear_227_748" x1="117.179" y1="205.446" x2="117.179" y2="247.478" gradientUnits="userSpaceOnUse">
<stop stop-color="#7F88B5"/>
<stop offset="1" stop-color="#AEB7E6"/>
</linearGradient>
<linearGradient id="paint26_linear_227_748" x1="171.821" y1="202.924" x2="171.821" y2="250" gradientUnits="userSpaceOnUse">
<stop stop-color="#737BA5"/>
<stop offset="1" stop-color="#464F7E"/>
</linearGradient>
<linearGradient id="paint27_linear_227_748" x1="171.821" y1="205.446" x2="171.821" y2="247.478" gradientUnits="userSpaceOnUse">
<stop stop-color="#7F88B5"/>
<stop offset="1" stop-color="#AEB7E6"/>
</linearGradient>
<linearGradient id="paint28_linear_227_748" x1="226.462" y1="202.924" x2="226.462" y2="250" gradientUnits="userSpaceOnUse">
<stop stop-color="#737BA5"/>
<stop offset="1" stop-color="#464F7E"/>
</linearGradient>
<linearGradient id="paint29_linear_227_748" x1="226.462" y1="205.446" x2="226.462" y2="247.478" gradientUnits="userSpaceOnUse">
<stop stop-color="#7F88B5"/>
<stop offset="1" stop-color="#AEB7E6"/>
</linearGradient>
<linearGradient id="paint30_linear_227_748" x1="62.5378" y1="202.924" x2="62.5378" y2="250" gradientUnits="userSpaceOnUse">
<stop stop-color="#737BA5"/>
<stop offset="1" stop-color="#464F7E"/>
</linearGradient>
<linearGradient id="paint31_linear_227_748" x1="62.5378" y1="205.446" x2="62.5378" y2="247.478" gradientUnits="userSpaceOnUse">
<stop stop-color="#7F88B5"/>
<stop offset="1" stop-color="#AEB7E6"/>
</linearGradient>
</defs>
</svg>
