<svg width="289" height="289" viewBox="0 0 289 289" fill="none" xmlns="http://www.w3.org/2000/svg">
<rect width="289" height="289" fill="#E1E1E1"/>
<rect x="22.8022" y="39.1866" width="76.4444" height="76.4444" transform="rotate(-4.11286 22.8022 39.1866)" fill="#EF2B2B"/>
<rect x="29.3407" y="44.8478" width="63.4489" height="63.4489" transform="rotate(-4.11286 29.3407 44.8478)" fill="#FF6363"/>
<rect x="36.6964" y="51.2167" width="50.4533" height="50.4533" transform="rotate(-4.11286 36.6964 51.2167)" fill="#FF9494"/>
<rect x="43.2348" y="56.8778" width="38.2222" height="38.2222" transform="rotate(-4.11286 43.2348 56.8778)" fill="#FFB8B8"/>
<rect x="49.7733" y="62.5391" width="25.9911" height="25.9911" transform="rotate(-4.11286 49.7733 62.5391)" fill="#FFDEDE"/>
<rect x="98.6066" y="33.7358" width="76.4444" height="76.4444" transform="rotate(-4.11286 98.6066 33.7358)" fill="#EF2B2B"/>
<rect x="105.145" y="39.397" width="63.4489" height="63.4489" transform="rotate(-4.11286 105.145 39.397)" fill="#FF6363"/>
<rect x="112.501" y="45.7659" width="50.4533" height="50.4533" transform="rotate(-4.11286 112.501 45.7659)" fill="#FF9494"/>
<rect x="119.039" y="51.427" width="38.2222" height="38.2222" transform="rotate(-4.11286 119.039 51.427)" fill="#FFB8B8"/>
<rect x="125.578" y="57.0883" width="25.9911" height="25.9911" transform="rotate(-4.11286 125.578 57.0883)" fill="#FFDEDE"/>
<rect x="174.411" y="28.2849" width="76.4444" height="76.4444" transform="rotate(-4.11286 174.411 28.2849)" fill="#2B33EF"/>
<rect x="180.949" y="33.946" width="63.4489" height="63.4489" transform="rotate(-4.11286 180.949 33.946)" fill="#5A60F7"/>
<rect x="188.305" y="40.3149" width="50.4533" height="50.4533" transform="rotate(-4.11286 188.305 40.3149)" fill="#858AFC"/>
<rect x="194.843" y="45.9761" width="38.2222" height="38.2222" transform="rotate(-4.11286 194.843 45.9761)" fill="#ACAEF1"/>
<rect x="201.382" y="51.6373" width="25.9911" height="25.9911" transform="rotate(-4.11286 201.382 51.6373)" fill="#DFE0F9"/>
<rect x="179.862" y="104.089" width="76.4444" height="76.4444" transform="rotate(-4.11286 179.862 104.089)" fill="#2B33EF"/>
<rect x="186.4" y="109.75" width="63.4489" height="63.4489" transform="rotate(-4.11286 186.4 109.75)" fill="#5A60F7"/>
<rect x="193.756" y="116.119" width="50.4533" height="50.4533" transform="rotate(-4.11286 193.756 116.119)" fill="#858AFC"/>
<rect x="200.294" y="121.781" width="38.2222" height="38.2222" transform="rotate(-4.11286 200.294 121.781)" fill="#ACAEF1"/>
<rect x="206.833" y="127.442" width="25.9911" height="25.9911" transform="rotate(-4.11286 206.833 127.442)" fill="#DFE0F9"/>
<rect x="185.313" y="179.894" width="76.4444" height="76.4444" transform="rotate(-4.11286 185.313 179.894)" fill="#2B33EF"/>
<rect x="191.851" y="185.555" width="63.4489" height="63.4489" transform="rotate(-4.11286 191.851 185.555)" fill="#5A60F7"/>
<rect x="199.207" y="191.924" width="50.4533" height="50.4533" transform="rotate(-4.11286 199.207 191.924)" fill="#858AFC"/>
<rect x="205.745" y="197.585" width="38.2222" height="38.2222" transform="rotate(-4.11286 205.745 197.585)" fill="#ACAEF1"/>
<rect x="212.284" y="203.246" width="25.9911" height="25.9911" transform="rotate(-4.11286 212.284 203.246)" fill="#DFE0F9"/>
<rect x="109.508" y="185.344" width="76.4444" height="76.4444" transform="rotate(-4.11286 109.508 185.344)" fill="#2B33EF"/>
<rect x="116.047" y="191.006" width="63.4489" height="63.4489" transform="rotate(-4.11286 116.047 191.006)" fill="#5A60F7"/>
<rect x="123.402" y="197.375" width="50.4533" height="50.4533" transform="rotate(-4.11286 123.402 197.375)" fill="#858AFC"/>
<rect x="129.941" y="203.036" width="38.2222" height="38.2222" transform="rotate(-4.11286 129.941 203.036)" fill="#ACAEF1"/>
<rect x="136.479" y="208.697" width="25.9911" height="25.9911" transform="rotate(-4.11286 136.479 208.697)" fill="#DFE0F9"/>
<rect x="28.2531" y="114.991" width="76.4444" height="76.4444" transform="rotate(-4.11286 28.2531 114.991)" fill="#2B33EF"/>
<rect x="34.7916" y="120.652" width="63.4489" height="63.4489" transform="rotate(-4.11286 34.7916 120.652)" fill="#5A60F7"/>
<rect x="42.1473" y="127.021" width="50.4533" height="50.4533" transform="rotate(-4.11286 42.1473 127.021)" fill="#858AFC"/>
<rect x="48.6857" y="132.682" width="38.2222" height="38.2222" transform="rotate(-4.11286 48.6857 132.682)" fill="#ACAEF1"/>
<rect x="55.2241" y="138.343" width="25.9911" height="25.9911" transform="rotate(-4.11286 55.2241 138.343)" fill="#DFE0F9"/>
<rect x="33.704" y="190.795" width="76.4444" height="76.4444" transform="rotate(-4.11286 33.704 190.795)" fill="#2B33EF"/>
<rect x="40.2424" y="196.456" width="63.4489" height="63.4489" transform="rotate(-4.11286 40.2424 196.456)" fill="#5A60F7"/>
<rect x="47.5981" y="202.825" width="50.4533" height="50.4533" transform="rotate(-4.11286 47.5981 202.825)" fill="#858AFC"/>
<rect x="54.1365" y="208.486" width="38.2222" height="38.2222" transform="rotate(-4.11286 54.1365 208.486)" fill="#ACAEF1"/>
<rect x="60.675" y="214.148" width="25.9911" height="25.9911" transform="rotate(-4.11286 60.675 214.148)" fill="#DFE0F9"/>
<rect x="104.057" y="109.54" width="76.4444" height="76.4444" transform="rotate(-4.11286 104.057 109.54)" fill="#454545"/>
<rect x="110.596" y="115.201" width="63.4489" height="63.4489" transform="rotate(-4.11286 110.596 115.201)" fill="#717171"/>
<rect x="117.952" y="121.57" width="50.4533" height="50.4533" transform="rotate(-4.11286 117.952 121.57)" fill="#929292"/>
<rect x="124.49" y="127.231" width="38.2222" height="38.2222" transform="rotate(-4.11286 124.49 127.231)" fill="#B2B2B2"/>
<rect x="131.028" y="132.892" width="25.9911" height="25.9911" transform="rotate(-4.11286 131.028 132.892)" fill="#252525"/>
<rect x="138.05" y="123.957" width="9.93778" height="3.82222" transform="rotate(-4.11286 138.05 123.957)" fill="#E3E3E3"/>
<rect x="138.05" y="123.957" width="9.93778" height="3.82222" transform="rotate(-4.11286 138.05 123.957)" fill="#E3E3E3"/>
<rect x="138.05" y="123.957" width="9.93778" height="3.82222" transform="rotate(-4.11286 138.05 123.957)" fill="#E3E3E3"/>
<rect x="137.502" y="116.332" width="9.93778" height="3.82222" transform="rotate(-4.11286 137.502 116.332)" fill="#E3E3E3"/>
<rect x="137.502" y="116.332" width="9.93778" height="3.82222" transform="rotate(-4.11286 137.502 116.332)" fill="#E3E3E3"/>
<rect x="137.502" y="116.332" width="9.93778" height="3.82222" transform="rotate(-4.11286 137.502 116.332)" fill="#E3E3E3"/>
<rect x="165.888" y="138.05" width="9.93778" height="3.82222" transform="rotate(85.8871 165.888 138.05)" fill="#E3E3E3"/>
<rect x="165.888" y="138.05" width="9.93778" height="3.82222" transform="rotate(85.8871 165.888 138.05)" fill="#E3E3E3"/>
<rect x="165.888" y="138.05" width="9.93778" height="3.82222" transform="rotate(85.8871 165.888 138.05)" fill="#E3E3E3"/>
<rect x="173.513" y="137.502" width="9.93778" height="3.82222" transform="rotate(85.8871 173.513 137.502)" fill="#E3E3E3"/>
<rect x="173.513" y="137.502" width="9.93778" height="3.82222" transform="rotate(85.8871 173.513 137.502)" fill="#E3E3E3"/>
<rect x="173.513" y="137.502" width="9.93778" height="3.82222" transform="rotate(85.8871 173.513 137.502)" fill="#E3E3E3"/>
<rect x="127.002" y="140.846" width="9.93778" height="3.82222" transform="rotate(85.8871 127.002 140.846)" fill="#E3E3E3"/>
<rect x="127.002" y="140.846" width="9.93778" height="3.82222" transform="rotate(85.8871 127.002 140.846)" fill="#E3E3E3"/>
<rect x="127.002" y="140.846" width="9.93778" height="3.82222" transform="rotate(85.8871 127.002 140.846)" fill="#E3E3E3"/>
<rect x="133.914" y="130.386" width="5.35111" height="5.35111" transform="rotate(85.8871 133.914 130.386)" fill="#E3E3E3"/>
<rect x="133.914" y="130.386" width="5.35111" height="5.35111" transform="rotate(85.8871 133.914 130.386)" fill="#E3E3E3"/>
<rect x="133.914" y="130.386" width="5.35111" height="5.35111" transform="rotate(85.8871 133.914 130.386)" fill="#E3E3E3"/>
<rect x="159.076" y="128.576" width="5.35111" height="5.35111" transform="rotate(85.8871 159.076 128.576)" fill="#E3E3E3"/>
<rect x="159.076" y="128.576" width="5.35111" height="5.35111" transform="rotate(85.8871 159.076 128.576)" fill="#E3E3E3"/>
<rect x="159.076" y="128.576" width="5.35111" height="5.35111" transform="rotate(85.8871 159.076 128.576)" fill="#E3E3E3"/>
<rect x="169.69" y="116.317" width="5.35111" height="5.35111" transform="rotate(85.8871 169.69 116.317)" fill="#E3E3E3"/>
<rect x="169.69" y="116.317" width="5.35111" height="5.35111" transform="rotate(85.8871 169.69 116.317)" fill="#E3E3E3"/>
<rect x="169.69" y="116.317" width="5.35111" height="5.35111" transform="rotate(85.8871 169.69 116.317)" fill="#E3E3E3"/>
<rect x="173.144" y="164.353" width="5.35111" height="5.35111" transform="rotate(85.8871 173.144 164.353)" fill="#E3E3E3"/>
<rect x="173.144" y="164.353" width="5.35111" height="5.35111" transform="rotate(85.8871 173.144 164.353)" fill="#E3E3E3"/>
<rect x="173.144" y="164.353" width="5.35111" height="5.35111" transform="rotate(85.8871 173.144 164.353)" fill="#E3E3E3"/>
<rect x="125.108" y="167.807" width="5.35111" height="5.35111" transform="rotate(85.8871 125.108 167.807)" fill="#E3E3E3"/>
<rect x="125.108" y="167.807" width="5.35111" height="5.35111" transform="rotate(85.8871 125.108 167.807)" fill="#E3E3E3"/>
<rect x="125.108" y="167.807" width="5.35111" height="5.35111" transform="rotate(85.8871 125.108 167.807)" fill="#E3E3E3"/>
<rect x="121.654" y="119.771" width="5.35111" height="5.35111" transform="rotate(85.8871 121.654 119.771)" fill="#E3E3E3"/>
<rect x="121.654" y="119.771" width="5.35111" height="5.35111" transform="rotate(85.8871 121.654 119.771)" fill="#E3E3E3"/>
<rect x="121.654" y="119.771" width="5.35111" height="5.35111" transform="rotate(85.8871 121.654 119.771)" fill="#E3E3E3"/>
<rect x="160.885" y="153.738" width="5.35111" height="5.35111" transform="rotate(85.8871 160.885 153.738)" fill="#E3E3E3"/>
<rect x="160.885" y="153.738" width="5.35111" height="5.35111" transform="rotate(85.8871 160.885 153.738)" fill="#E3E3E3"/>
<rect x="160.885" y="153.738" width="5.35111" height="5.35111" transform="rotate(85.8871 160.885 153.738)" fill="#E3E3E3"/>
<rect x="135.723" y="155.547" width="5.35111" height="5.35111" transform="rotate(85.8871 135.723 155.547)" fill="#E3E3E3"/>
<rect x="135.723" y="155.547" width="5.35111" height="5.35111" transform="rotate(85.8871 135.723 155.547)" fill="#E3E3E3"/>
<rect x="135.723" y="155.547" width="5.35111" height="5.35111" transform="rotate(85.8871 135.723 155.547)" fill="#E3E3E3"/>
<rect x="119.377" y="141.394" width="9.93778" height="3.82222" transform="rotate(85.8871 119.377 141.394)" fill="#E3E3E3"/>
<rect x="119.377" y="141.394" width="9.93778" height="3.82222" transform="rotate(85.8871 119.377 141.394)" fill="#E3E3E3"/>
<rect x="119.377" y="141.394" width="9.93778" height="3.82222" transform="rotate(85.8871 119.377 141.394)" fill="#E3E3E3"/>
<rect x="140.846" y="162.843" width="9.93778" height="3.82222" transform="rotate(-4.11286 140.846 162.843)" fill="#E3E3E3"/>
<rect x="140.846" y="162.843" width="9.93778" height="3.82222" transform="rotate(-4.11286 140.846 162.843)" fill="#E3E3E3"/>
<rect x="140.846" y="162.843" width="9.93778" height="3.82222" transform="rotate(-4.11286 140.846 162.843)" fill="#E3E3E3"/>
<rect x="141.395" y="170.468" width="9.93778" height="3.82222" transform="rotate(-4.11286 141.395 170.468)" fill="#E3E3E3"/>
<rect x="141.395" y="170.468" width="9.93778" height="3.82222" transform="rotate(-4.11286 141.395 170.468)" fill="#E3E3E3"/>
<rect x="141.395" y="170.468" width="9.93778" height="3.82222" transform="rotate(-4.11286 141.395 170.468)" fill="#E3E3E3"/>
</svg>
