<svg width="289" height="289" viewBox="0 0 289 289" fill="none" xmlns="http://www.w3.org/2000/svg">
<g clip-path="url(#clip0_218_268)">
<rect width="289" height="289" fill="#FF675D"/>
<path d="M63.765 177.947C66.512 171.843 77.3699 168.713 85.809 167.399C89.2257 166.867 93.3284 169.369 95.5958 171.98C97.8398 174.564 101.389 178.129 106.825 182.841C112.045 187.365 116.75 189.671 120.638 190.681C125.111 191.842 130.802 195.965 130.802 200.587V223.326C130.802 226.64 128.116 229.326 124.802 229.326H59.9874C56.3122 229.326 53.5001 226.059 54.0943 222.432C56.5683 207.333 60.7514 184.644 63.765 177.947Z" fill="#1B1B1B" stroke="#1B1B1B" stroke-width="10"/>
<path d="M88.6064 110.911C87.9539 110.748 88.6064 118.251 88.6064 128.535C88.6064 136.497 93.8702 148.615 97.5469 156.709C99.0788 160.081 101.204 163.152 103.823 165.771L109.123 171.07C111.094 173.042 113.33 174.728 115.767 176.082L118.821 177.779C120.205 178.548 121.659 179.181 123.165 179.671V179.671C125.631 180.474 128.209 180.884 130.802 180.884H131.291" stroke="#1B1B1B" stroke-width="7"/>
<path fill-rule="evenodd" clip-rule="evenodd" d="M131.781 61.0001H131.781V114.825H169.984C169.984 114.825 169.984 114.825 169.984 114.825H93.5774C91.2161 110.048 89.9022 104.747 89.9022 99.1671C89.9022 78.0881 108.652 61.0001 131.781 61.0001Z" fill="#1B1B1B"/>
<ellipse cx="89.9022" cy="104.06" rx="10.9682" ry="10.765" fill="#1B1B1B"/>
<rect x="89.9022" y="93.295" width="41.8784" height="21.5301" fill="#1B1B1B"/>
<path d="M134.717 133.419C131.291 131.951 122.973 129.015 112.208 126.08L103.529 122.644C96.3547 119.804 88.5494 124.991 88.3887 132.705C88.2937 137.266 91.0071 141.419 95.2227 143.163L97.9094 144.275C100.845 145.489 104.085 145.761 107.182 145.054L119.548 142.227C129.334 140.27 136.965 134.383 134.717 133.419Z" stroke="#1B1B1B" stroke-width="10"/>
<path d="M198.235 177.948C195.488 171.843 184.63 168.714 176.191 167.399C172.774 166.867 168.671 169.37 166.404 171.98C164.16 174.564 160.611 178.129 155.175 182.841C149.955 187.365 145.25 189.672 141.362 190.681C136.889 191.842 131.198 195.965 131.198 200.587V223.326C131.198 226.64 133.884 229.326 137.198 229.326H202.012C205.688 229.326 208.5 226.059 207.906 222.433C205.432 207.333 201.248 184.644 198.235 177.948Z" fill="#1B1B1B" stroke="#1B1B1B" stroke-width="10"/>
<path d="M173.394 110.911C174.046 110.748 173.394 118.251 173.394 128.535C173.394 136.497 168.13 148.615 164.453 156.709C162.921 160.081 160.796 163.152 158.177 165.771L152.877 171.07C150.906 173.042 148.67 174.728 146.233 176.082L143.179 177.779C141.795 178.548 140.341 179.181 138.835 179.671V179.671C136.369 180.474 133.791 180.884 131.197 180.884H130.709" stroke="#1B1B1B" stroke-width="7"/>
<path fill-rule="evenodd" clip-rule="evenodd" d="M172.098 99.167C172.098 78.088 153.348 61 130.219 61V114.825H92.016C92.016 114.825 92.0161 114.825 92.0161 114.825H168.422C170.784 110.047 172.098 104.747 172.098 99.167ZM88.3409 99.167L88.3409 99.2191V99.1149L88.3409 99.167Z" fill="#1B1B1B"/>
<ellipse cx="10.9682" cy="10.765" rx="10.9682" ry="10.765" transform="matrix(-1 0 0 1 183.066 93.2952)" fill="#1B1B1B"/>
<rect width="41.8784" height="21.5301" transform="matrix(-1 0 0 1 172.098 93.2952)" fill="#1B1B1B"/>
<path d="M127.283 133.419C130.709 131.952 139.027 129.016 149.792 126.08L158.471 122.644C165.645 119.804 173.451 124.991 173.611 132.705C173.706 137.266 170.993 141.419 166.777 143.163L164.091 144.275C161.155 145.489 157.915 145.762 154.818 145.054L142.452 142.227C132.666 140.27 125.035 134.383 127.283 133.419Z" stroke="#1B1B1B" stroke-width="10"/>
<path d="M276.5 0H291V289H209L276.5 0Z" fill="#646464"/>
<path d="M0 0H59.5L21.5 289H0V0Z" fill="#646464"/>
</g>
<defs>
<clipPath id="clip0_218_268">
<rect width="289" height="289" fill="white"/>
</clipPath>
</defs>
</svg>
