<svg width="289" height="289" viewBox="0 0 289 289" fill="none" xmlns="http://www.w3.org/2000/svg">
<g clip-path="url(#clip0_213_154)">
<rect width="289" height="289" fill="#A6A6A6"/>
<path d="M66 211L169 254" stroke="#333333" stroke-width="14" stroke-linecap="round"/>
<path d="M94 177L164 190" stroke="#333333" stroke-width="14" stroke-linecap="round"/>
<path d="M121 101L207 98" stroke="#333333" stroke-width="14" stroke-linecap="round"/>
<path d="M120 66L241 50" stroke="#333333" stroke-width="14" stroke-linecap="round"/>
<path d="M249.081 28.8284C249.988 97.0314 137.376 148.547 134.721 149.752C134.638 149.79 134.694 149.764 134.611 149.804C132.013 151.076 48.5909 192.382 38.4777 258.577" stroke="#DE2929" stroke-width="20" stroke-linecap="round"/>
<path d="M125.156 30.9191C99.2893 90.6588 138.304 139.738 141.024 143.05C141.129 143.178 141.222 143.282 141.333 143.404C144.475 146.855 192.041 200.663 165.832 267.224" stroke="#4679DB" stroke-width="20" stroke-linecap="round"/>
<circle cx="95" cy="56" r="25" fill="white"/>
<path d="M103.131 57.759C103.499 58.1602 103.942 58.5155 104.46 58.8248C104.972 59.1179 105.397 59.3229 105.735 59.4398C105.641 60.3964 105.377 61.1658 104.943 61.748C104.583 62.2293 104.143 62.5923 103.624 62.8368C103.342 62.9761 103 63.0732 102.595 63.1281C102.191 63.183 101.717 63.0973 101.174 62.8708C100.64 62.6222 100.024 62.1455 99.325 61.4408C99.1102 61.2054 98.7866 61.1019 98.3542 61.1301C97.9217 61.1584 97.4827 61.2444 97.037 61.3882C96.5854 61.5157 96.2211 61.6298 95.9442 61.7306C95.6673 61.8314 95.3282 61.964 94.9269 62.1285C94.542 62.2871 94.2073 62.4827 93.9231 62.7153C93.6388 62.9478 93.5175 63.2226 93.559 63.5395C93.5887 63.8238 93.6784 64.0955 93.828 64.3546C93.9777 64.6137 94.1488 64.7544 94.3413 64.7765C94.1592 65.1379 93.9653 65.4667 93.7596 65.763C93.5701 66.0533 93.3577 66.3058 93.1223 66.5206C92.8336 66.7917 92.5019 66.9954 92.1273 67.1318C91.769 67.2622 91.3321 67.329 90.8168 67.3321C90.5754 67.3277 90.3022 67.2612 89.9971 67.1324C89.692 67.0037 89.4305 66.7668 89.2127 66.4218C88.9949 66.0768 88.8882 65.5808 88.8924 64.9336C88.8909 64.8788 88.8775 64.5886 88.8522 64.0629C88.8268 63.5372 88.7889 62.8501 88.7383 62.0015C88.698 61.1308 88.6444 60.1727 88.5775 59.1272C88.5268 58.0758 88.4673 56.9999 88.3988 55.8996C88.3408 54.7771 88.2812 53.7013 88.2202 52.6721C88.1754 51.637 88.1307 50.7033 88.0861 49.871C88.0414 49.0388 88.0042 48.3791 87.9744 47.8919C87.9447 47.4047 87.9298 47.1611 87.9298 47.1611C88.0467 47.0263 88.2799 46.8307 88.6293 46.5744C88.9891 46.2959 89.3941 46.0655 89.8442 45.8832C90.3373 45.6669 90.8496 45.5542 91.3813 45.5451C91.9292 45.5302 92.4224 45.7196 92.8608 46.1134C93.046 46.2673 93.3534 46.5797 93.783 47.0505C94.2126 47.5213 94.7244 48.0913 95.3184 48.7605C95.9124 49.4296 96.5435 50.1499 97.2116 50.9212C97.8738 51.6763 98.5278 52.4343 99.1737 53.1953C99.83 53.9341 100.433 54.6277 100.982 55.2762C101.532 55.9246 101.999 56.4739 102.385 56.924C102.764 57.3578 103.013 57.6361 103.131 57.759ZM94.288 57.4084C94.6997 57.2217 94.8995 57.0106 94.8876 56.7751C94.892 56.5338 94.8519 56.2716 94.7674 55.9888C94.7022 55.8097 94.5896 55.6016 94.4296 55.3647C94.2859 55.1219 94.1214 54.9235 93.9363 54.7696C93.7615 54.5934 93.5926 54.5349 93.4298 54.5942C93.2017 54.6772 93.0086 54.932 92.8502 55.3585C92.7023 55.7629 92.6713 56.1338 92.7573 56.4714C92.821 56.7987 92.9551 57.0911 93.1596 57.3488C93.3803 57.6004 93.7565 57.6203 94.288 57.4084Z" fill="black"/>
<circle cx="194" cy="202" r="25" fill="white"/>
<path d="M201.012 206.796C201.158 207.201 201.248 207.583 201.281 207.942C201.322 208.286 201.259 208.69 201.092 209.154C200.933 209.602 200.626 210.186 200.171 210.904C199.948 211.256 199.638 211.637 199.24 212.048C198.858 212.468 198.389 212.847 197.833 213.186C197.276 213.526 196.637 213.767 195.914 213.91C195.191 214.053 194.383 214.047 193.492 213.893C192.6 213.738 191.622 213.353 190.556 212.738L190.106 212.478C189.597 212.145 188.976 211.766 188.24 211.341C187.496 210.931 186.809 210.545 186.178 210.181C185.786 209.994 185.379 209.779 184.959 209.537C184.538 209.294 184.169 209.05 183.849 208.806C183.53 208.562 183.314 208.347 183.201 208.161C183.427 208.012 183.699 207.749 184.017 207.372C184.358 206.988 184.699 206.554 185.039 206.07C185.378 205.586 185.675 205.107 185.929 204.633C185.998 204.512 186.164 204.208 186.426 203.719C186.712 203.223 187.056 202.611 187.457 201.882C187.881 201.146 188.333 200.347 188.812 199.482C189.306 198.627 189.8 197.771 190.294 196.915C190.805 196.03 191.236 195.267 191.585 194.628C191.934 193.989 192.016 193.516 191.833 193.21C191.673 192.898 191.634 192.445 191.716 191.852C191.822 191.253 192.1 190.563 192.551 189.782C192.603 189.832 192.777 189.963 193.075 190.175C193.382 190.372 193.669 190.568 193.937 190.762C194.273 190.977 194.752 191.273 195.374 191.652C196.02 192.025 196.688 192.411 197.378 192.809C197.904 193.113 198.429 193.416 198.954 193.719C199.48 194.023 199.948 194.303 200.36 194.561C200.795 194.812 201.111 194.994 201.306 195.107C202.236 195.644 202.955 196.289 203.461 197.042C203.976 197.779 204.276 198.543 204.36 199.332C204.445 200.122 204.297 200.847 203.915 201.507C203.534 202.167 203.095 202.685 202.599 203.059C202.118 203.441 201.68 203.749 201.286 203.982C200.9 204.199 200.658 204.41 200.56 204.614C200.423 204.955 200.423 205.285 200.559 205.604C200.71 205.931 200.861 206.329 201.012 206.796ZM198.738 200.229C198.881 200.052 198.895 199.82 198.78 199.533C198.689 199.24 198.501 198.942 198.217 198.637C197.956 198.326 197.638 198.063 197.262 197.846C196.887 197.629 196.545 197.562 196.238 197.645C195.93 197.727 195.668 197.886 195.452 198.122C195.245 198.342 195.104 198.551 195.03 198.749C194.91 199.06 195.003 199.384 195.309 199.721C195.639 200.051 195.972 200.324 196.309 200.538C196.645 200.752 197.05 200.866 197.523 200.879C198.005 200.877 198.41 200.66 198.738 200.229ZM192.898 208.266C193.447 208.563 193.9 208.714 194.257 208.72C194.629 208.735 194.936 208.652 195.18 208.473C195.424 208.293 195.63 208.092 195.799 207.869C196.034 207.565 196.102 207.223 196 206.845C195.907 206.451 195.69 206.065 195.347 205.687C195.005 205.309 194.574 204.981 194.055 204.701C193.545 204.406 193.082 204.289 192.667 204.35C192.252 204.41 191.905 204.56 191.626 204.8C191.357 205.024 191.164 205.254 191.049 205.487C190.912 205.829 190.979 206.267 191.25 206.804C191.529 207.326 192.078 207.813 192.898 208.266Z" fill="black"/>
<circle cx="41" cy="202" r="25" fill="white"/>
<path d="M47.0107 196.743C46.9172 197.411 46.6827 197.927 46.3071 198.293C45.9315 198.658 45.5088 198.856 45.0389 198.886C44.5659 198.899 44.1327 198.738 43.7391 198.402C43.9902 198.129 44.0334 197.875 43.8688 197.64C43.7182 197.385 43.4145 197.21 42.9576 197.114C42.4978 197.002 41.9395 197.03 41.2828 197.199C40.606 197.353 39.9538 197.697 39.3262 198.23C38.7156 198.76 38.2476 199.45 37.9222 200.299C37.5967 201.149 37.5092 202.15 37.6597 203.302C37.8162 204.489 38.1042 205.424 38.5238 206.107C38.9434 206.79 39.4012 207.29 39.8972 207.607C40.4072 207.905 40.8992 208.099 41.3731 208.192C41.8441 208.267 42.2206 208.306 42.5027 208.309C42.8732 208.315 43.292 208.294 43.7589 208.246C44.2398 208.179 44.7118 208.061 45.1747 207.891C45.6376 207.722 46.0217 207.504 46.327 207.239C46.6011 206.997 46.9416 206.682 47.3483 206.293C47.752 205.888 48.1326 205.451 48.4901 204.983C48.8476 204.515 49.0927 204.059 49.2253 203.613C49.8749 203.903 50.3312 204.395 50.5942 205.087C50.8742 205.777 50.9499 206.556 50.8213 207.424C50.6926 208.291 50.3516 209.152 49.7982 210.006C49.2589 210.841 48.4922 211.583 47.4981 212.234C46.5009 212.867 45.2653 213.296 43.7913 213.521C43.1055 213.624 42.2977 213.635 41.3679 213.552C40.4552 213.467 39.5098 213.246 38.5319 212.891C37.551 212.518 36.6182 211.97 35.7337 211.245C34.8633 210.501 34.1274 209.522 33.5261 208.308C32.9249 207.094 32.5561 205.602 32.4198 203.83C32.2814 202.147 32.4398 200.65 32.8948 199.338C33.3669 198.022 34.0232 196.903 34.8638 195.981C35.7184 195.038 36.6589 194.282 37.6851 193.714C38.7254 193.126 39.7477 192.735 40.7518 192.54C41.7529 192.328 42.6506 192.328 43.4448 192.54C44.256 192.749 44.9403 193.086 45.4975 193.551C46.0517 193.999 46.4598 194.517 46.7218 195.104C46.9978 195.672 47.0941 196.218 47.0107 196.743Z" fill="black"/>
</g>
<defs>
<clipPath id="clip0_213_154">
<rect width="289" height="289" fill="white"/>
</clipPath>
</defs>
</svg>
