<svg width="400" height="400" viewBox="0 0 400 400" fill="none" xmlns="http://www.w3.org/2000/svg">
<path d="M21.261 12.3386L38.9801 374.808C39.1065 377.394 41.1865 379.456 43.7738 379.56L373.544 392.781C376.477 392.899 378.879 390.477 378.739 387.546L361.021 17.7314C360.895 15.1004 358.749 13.0184 356.115 12.9715L26.3441 7.09523C23.452 7.04369 21.1197 9.44951 21.261 12.3386Z" fill="white"/>
<path d="M168.353 187.275L294.552 344.884C294.871 345.282 295.331 345.544 295.836 345.614L312.43 347.931C313.668 348.104 314.759 347.112 314.705 345.863L307.013 168.87C306.966 167.802 306.087 166.959 305.018 166.957L275.08 166.907C273.89 166.906 272.962 167.936 273.088 169.119L284.427 275.96C284.631 277.876 282.273 278.944 280.967 277.526L198.659 188.161C197.86 187.294 197.981 185.927 198.921 185.214L310.906 100.183C311.468 99.7567 311.763 99.0661 311.684 98.3655L307.55 61.812C307.367 60.1886 305.42 59.4583 304.214 60.5605L168.565 184.549C167.787 185.26 167.695 186.452 168.353 187.275Z" fill="black"/>
<path d="M214.412 345.454L228.73 337.224C229.789 336.616 230.06 335.209 229.303 334.251L106.377 178.623C105.707 177.774 105.833 176.546 106.662 175.851L236.547 66.9627C237.978 65.7628 237.13 63.43 235.262 63.43L196.062 63.43C195.586 63.43 195.126 63.5998 194.764 63.9088L63.7902 175.702C62.9374 176.429 62.8495 177.716 63.5953 178.553L211.922 345.05C212.552 345.757 213.591 345.925 214.412 345.454Z" fill="black"/>
</svg>
