<svg width="800" height="800" viewBox="0 0 800 800" fill="none" xmlns="http://www.w3.org/2000/svg">
<path d="M272 337H222V287H272V337ZM424 337H374V287H424V337Z" fill="#859B94"/>
<path d="M525 524H476V574H426V524H475V474H525V524ZM575 474H525V337H575V474Z" fill="#E7C9BA"/>
<path d="M525 167H575V337H525V287H475V197H257V232H172V197H189V118H525V167Z" fill="#9D8F7D"/>
<path d="M525 800H475V687H525V800ZM575 687H525V624H575V687ZM525 624H475V574H525V624Z" fill="#708DC3"/>
<path d="M256 800H206V737H256V800ZM627 800H577V737H627V800ZM475 287H525V474H475V524H426V574H341V524H256V474H222V337H272V287H223V232H257V197H475V287ZM374 337H424V287H374V337Z" fill="#F4D5C2"/>
<path d="M475 800H307V687H256V624H307V574H475V624H525V687H475V800ZM256 737H206V687H256V737ZM627 737H577V687H627V737Z" fill="#7A9DDD"/>
</svg>
