<svg width="339" height="420" viewBox="0 0 339 420" fill="none" xmlns="http://www.w3.org/2000/svg">
<path d="M306.349 248.178C282.159 290.225 237.223 333.069 219.182 356.888C216.648 360.233 219.89 363.987 225.115 364.211M306.349 248.178L270.272 229.235C268.52 228.315 266.26 228.141 264.31 228.735C263.735 228.91 263.241 229.269 262.815 229.691L224.645 267.479C224.218 267.901 223.724 268.26 223.15 268.435C221.617 268.902 219.885 268.897 218.356 268.418C217.82 268.25 217.354 267.92 216.946 267.534L175.206 228.06C174.807 227.683 174.348 227.373 173.848 227.145L171.684 226.157C170.406 225.573 168.941 225.555 167.649 226.105L165.222 227.138C164.676 227.371 164.176 227.698 163.745 228.106L122.065 267.534C121.657 267.92 121.191 268.25 120.655 268.418C119.126 268.897 117.394 268.902 115.86 268.435C115.286 268.26 114.793 267.901 114.366 267.479L76.1849 229.691C75.7585 229.269 75.2647 228.91 74.6908 228.735C72.7408 228.141 70.4802 228.315 68.7283 229.235L32.6507 248.178M306.349 248.178C324.124 217.283 324.153 197.867 319.117 185.214M241.092 61.9845C241.092 61.9845 211.066 81.7732 214.004 104.26C216.941 126.747 296.698 159.579 301.424 162.727C303.798 166.567 314.036 172.448 319.117 185.214M241.092 61.9845C249.732 55.6728 257.427 46.9335 246.501 38.9518C243.038 36.4215 238.34 35 233.442 35H172.14H166.86H105.558C100.66 35 95.9623 36.4215 92.4987 38.9518C81.5729 46.9335 89.2683 55.6728 97.9082 61.9845M241.092 61.9845H172.14H166.86H97.9082M225.115 364.211C228.585 364.211 231.923 365.185 234.44 366.93C240.065 370.831 240.065 377.38 234.44 381.281C231.923 383.027 228.585 384 225.115 384H175.834H163.166H113.885C110.415 384 107.077 383.027 104.56 381.281C98.9352 377.38 98.9352 370.831 104.56 366.93C107.077 365.185 110.415 364.211 113.885 364.211M225.115 364.211H175.834H163.166H113.885M32.6507 248.178C56.8415 290.225 101.777 333.069 119.818 356.888C122.352 360.233 119.11 363.987 113.885 364.211M32.6507 248.178C14.8764 217.283 14.8468 197.867 19.8831 185.214M97.9082 61.9845C97.9082 61.9845 127.934 81.7732 124.996 104.26C122.059 126.747 42.3023 159.579 37.5758 162.727C35.2021 166.567 24.9643 172.448 19.8831 185.214M19.8831 185.214H319.117" stroke="#6283C0" stroke-width="24"/>
<path d="M124.549 263.737L172.692 224H173.308L221.468 263.737C223.347 264.499 225.632 264.49 227.5 263.714L266.834 227.166C268.846 226.331 271.327 226.389 273.261 227.318L305.216 242.668C307.731 243.876 308.688 246.236 307.481 248.252L285.715 284.608C285.589 284.819 285.44 285.023 285.271 285.218L219.519 360.909C218.387 362.211 216.425 363 214.316 363H173.308H172.692H131.684C129.575 363 127.613 362.211 126.481 360.909L60.7289 285.218C60.5597 285.023 60.4112 284.819 60.2846 284.608L38.5191 248.252C37.3118 246.236 38.2687 243.876 40.7836 242.668L72.7394 227.318C74.673 226.389 77.1542 226.331 79.1657 227.166L118.517 263.714C120.385 264.49 122.67 264.499 124.549 263.737Z" fill="#6283C0" fill-opacity="0.2"/>
<path d="M24 186H171.886H173.114H321L311.182 169.733L287.25 153.467L256.568 140.363L227.727 120.03L217.909 101.956L221.591 85.6889L238.159 64H173.114H171.886H106.841L123.409 85.6889L127.091 101.956L117.273 120.03L88.4318 140.363L57.75 153.467L33.8182 169.733L24 186Z" fill="#6283C0" fill-opacity="0.2"/>
</svg>
